<svg xmlns="http://www.w3.org/2000/svg" width="256" height="256"><path fill-opacity=".016" d="M0 128.004v128.004l128.25-.254 128.25-.254.254-127.75L257.008 0H0v128.004m.485.496c0 70.4.119 99.053.265 63.672.146-35.38.146-92.98 0-128C.604 29.153.485 58.1.485 128.5" fill="#1976D2" fill-rule="evenodd"/><path fill-opacity=".036" d="M68.744 7.395c.304.492-.623.67-2.06.395-1.438-.274-2.742-.156-2.899.264-.157.419-1.185.917-2.285 1.104-1.1.188-2.9 1.173-4 2.188-1.1 1.015-3.013 2.242-4.25 2.725-1.237.484-2.25 1.54-2.25 2.348 0 .807-.84 2.056-1.866 2.774C47.287 20.488 47 21.007 47 23.059c0 .582-.445.784-.989.448-.547-.338-.745.024-.442.812.3.783-.042 2.044-.761 2.802-.72.758-1.353 1.942-1.408 2.629-.307 3.835-.491 4.312-1.44 3.725-.675-.417-.812.266-.392 1.941.397 1.581.231 2.584-.428 2.584-.593 0-.818.675-.502 1.5.317.825.255 2.287-.138 3.25-.392.962-.8 3.325-.907 5.25-.397 7.195-1.054 7.838-7.708 7.544-2.687-.119-4.885.186-4.885.679 0 .492-.52.574-1.155.182-.696-.431-.883-.276-.472.39.376.608-.194 1.574-1.266 2.148-1.834.981-1.968 2.459-2.278 25.132-.307 22.482-.458 24.183-2.27 25.507-1.068.78-1.518 1.432-1 1.45.517.017.067.692-1 1.5-1.068.807-1.518 1.482-1 1.5.517.017.041.712-1.059 1.543-1.1.831-1.948 1.829-1.885 2.218.236 1.46-2.978 7.101-3.768 6.612-.453-.28-.528.263-.166 1.207.444 1.157.281 1.483-.5 1-.734-.454-.958-.195-.612.707.3.783-.079 2.048-.842 2.811-.763.763-1.202 1.946-.974 2.629.228.683.039 1.242-.42 1.243-.458.001-.949 1.625-1.091 3.608-.142 1.984-.52 4.031-.841 4.55-.813 1.315-.709 16.956.127 19.09.377.962.427 2.425.11 3.25-.316.825-.087 1.5.51 1.5s.85.9.562 2c-.287 1.1-.085 2 .451 2 .538 0 .672.951.299 2.125-.49 1.544-.336 1.916.563 1.361.802-.496 1.075-.279.776.616-.253.759.139 1.979.871 2.711C11.04 179.182 10.098 180 5 180H0v3.455c0 3.159.301 3.511 3.514 4.114 1.933.362 4.643.443 6.024.179 1.38-.264 2.755-.083 3.055.402.3.486.915.654 1.367.375.452-.279 1.556.613 2.454 1.984.898 1.37 1.336 2.491.974 2.491-.362 0 .552.951 2.03 2.114 1.478 1.163 2.48 2.322 2.226 2.576s2.31 2.955 5.697 6.002c3.387 3.047 6.947 6.438 7.909 7.535.963 1.097 1.765 1.607 1.783 1.134.019-.474.919.201 2 1.5 1.082 1.298 1.981 1.973 1.999 1.5.017-.474.651-.044 1.409.956.757.999 1.755 1.834 2.218 1.857 1.815.087 8.341 3.926 8.341 4.905 0 .572.45.761 1 .421s1-.115 1 .5.45.84 1 .5c.55-.34 1-.115 1 .5s.45.84 1 .5c.55-.34 1-.115 1 .5s.45.84 1 .5c.55-.34 1-.115 1 .5s.45.84 1 .5c.55-.34 1-.156 1 .41 0 .565.617.79 1.371.501.754-.289 1.992.062 2.75.781.758.72 2.279 1.462 3.379 1.65 1.1.187 2.142.725 2.315 1.193.173.469.902.627 1.621.351.718-.275 1.931.124 2.694.887.763.763 1.946 1.202 2.629.974.683-.228 1.241.06 1.241.638 0 .579.675.793 1.5.477.825-.317 1.5-.092 1.5.5s.748.788 1.664.437c1.183-.454 1.436-.27.875.638-.592.957-.225 1.098 1.461.563 1.635-.519 2.045-.382 1.5.5-.539.872-.151 1.024 1.375.54 1.233-.392 2.125-.24 2.125.361 0 .57.675.777 1.5.461.825-.317 1.5-.128 1.5.42s.563.975 1.25.949c3.874-.144 5.806.369 5.184 1.376-.461.745.011.887 1.441.433 1.308-.416 2.125-.242 2.125.452 0 .619.418.868.929.552 1.178-.728 10.094 1.61 9.542 2.503-.226.365.768.439 2.208.164 1.851-.354 2.404-.154 1.886.684-.526.851-.004 1.002 1.851.537 1.421-.357 2.586-.263 2.589.21.003.472 3.03 1 6.728 1.174 3.697.174 7.286.785 7.975 1.357.736.611 3.019.768 5.523.38 2.348-.363 5.844-.812 7.769-.998 1.925-.185 4.85-.88 6.5-1.543 1.65-.664 4.012-1.276 5.249-1.359 1.237-.084 2.25-.517 2.25-.962.001-.445.451-.531 1.001-.191.55.34 1 .066 1-.608 0-.674.293-.932.651-.574.358.358 1.292-.13 2.074-1.084.852-1.037 1.117-1.132.661-.234-.42.825 1.14-.525 3.467-3 2.326-2.475 4.773-4.52 5.438-4.545.665-.025 1.092-.6.95-1.278-.143-.678.417-1.492 1.244-1.81.827-.317 1.268-.957.981-1.422-.287-.464.403-1.34 1.534-1.945s1.81-1.498 1.509-1.985c-.642-1.04 3.532-10.015 4.659-10.015.423 0 .51-.675.194-1.5-.317-.825-.19-1.5.281-1.501.471 0 .928-1.224 1.015-2.719.087-1.495.624-2.874 1.194-3.064.569-.19.759-1.065.422-1.945-.368-.958-.203-1.345.412-.965.636.393.846-.305.553-1.836-.26-1.359-.032-2.47.506-2.47s.75-1.192.471-2.649c-.346-1.809-.148-2.427.624-1.95.79.489.947-.218.52-2.351-.383-1.913-.202-3.05.484-3.05.609 0 .81-.737.455-1.664-.43-1.119-.256-1.427.531-.941.644.398 1.171.359 1.171-.086.001-.445 9.414-.809 20.918-.809s21.126-.225 21.38-.5c.255-.275.241-1.963-.031-3.75l-.495-3.25h-10.327c-5.807 0-10.599.438-10.946 1-.34.55-1.097 1-1.681 1-.745 0-.741-.389.013-1.297.692-.834 1.128-9.758 1.222-25.006.121-19.86.387-23.844 1.635-24.543.82-.459 1.562-1.243 1.651-1.744.088-.5.498-.797.91-.66.413.138.638-.168.5-.679-.137-.512.65-1.67 1.75-2.575 1.1-.904 1.325-1.355.5-1.001-.825.353.3-1.031 2.5-3.077 2.2-2.046 3.325-3.332 2.5-2.857-.825.475-.375-.523 1-2.219 1.375-1.695 2.907-2.846 3.405-2.558.497.289.631.083.296-.458-.334-.541.673-2.384 2.237-4.097 1.564-1.712 2.604-3.354 2.31-3.648-.294-.294.203-.817 1.103-1.162.901-.346 1.399-1.015 1.107-1.487-.292-.473.348-1.738 1.422-2.812 1.074-1.074 1.691-2.216 1.37-2.537-.321-.321-.032-.583.642-.583s.948-.45.608-1c-.34-.55-.115-1 .5-1s.84-.45.5-1c-.34-.55-.156-1 .41-1 .565 0 .79-.617.501-1.371-.289-.754.062-1.992.781-2.75.72-.758 1.345-2.166 1.391-3.129.226-4.734.486-5.825 1.273-5.339.47.291.636-.615.369-2.013s.091-3.619.795-4.936c1.034-1.932 1.037-2.688.016-3.919-.696-.838-1.07-2.855-.832-4.481.239-1.626.066-2.729-.385-2.45-.747.462-.916-.073-1.219-3.862-.055-.687-.349-1.475-.653-1.75-.909-.823-5.435-8.447-5.441-9.167-.003-.366-.416-1.041-.916-1.5-.535-.49-.608-.215-.176.667.653 1.333.582 1.333-.636 0a74.3 74.3 0 00-2.824-2.897c-1.153-1.108-1.164-1.231-.049-.595.97.553 1.171.424.649-.42-.415-.672-.991-.984-1.281-.694-.454.454-8.852-4.72-10.273-6.328-.275-.311-1.4-.72-2.5-.908-1.1-.187-2.142-.725-2.315-1.193-.173-.469-1.034-.576-1.914-.239-.998.383-1.349.209-.934-.463.424-.685-.062-.886-1.336-.553-1.1.288-2.001.098-2.001-.423 0-.52-.787-.942-1.75-.938-4.577.02-7.325-.418-6.902-1.099.256-.413-2.022-.593-5.062-.4-3.04.192-5.291-.033-5.004-.5.288-.468-6.97-.904-16.129-.97-9.159-.065-15.528.227-14.153.651 1.596.491-.754.78-6.5.799-6.315.021-8.403-.249-7-.904 1.325-.618-.617-.734-5.75-.344-4.262.324-7.753.213-7.757-.247-.004-.459-2.137-.934-4.74-1.055-2.603-.121-4.879-.658-5.058-1.194-.178-.535-.97-.726-1.76-.423-.789.303-1.435.067-1.435-.525 0-.591-.675-.816-1.5-.5-.825.317-1.5.092-1.5-.5 0-.591-.617-.838-1.371-.549-.754.289-2.051-.153-2.881-.984-.83-.83-1.73-1.289-2-1.02-.713.713-5.748-1.744-5.748-2.805 0-.494-.45-.62-1-.28-.55.34-1 .115-1-.5s-.45-.84-1-.5c-.55.34-1 .115-1-.5s-.416-.861-.925-.546c-1.154.713-6.075-1.453-6.075-2.674 0-.494-.45-.62-1-.28-.55.34-1 .156-1-.41 0-.565-.617-.79-1.371-.501-.754.289-1.996-.099-2.759-.862-.763-.763-1.946-1.202-2.629-.974-.683.228-1.241-.024-1.241-.559 0-.534-.562-.928-1.25-.874C91.456 9.499 83 7.782 83 7.136c0-.35-3.332-.636-7.405-.636-4.102 0-7.157.399-6.851.895M139 103.5c1.292 1.375 2.574 2.5 2.849 2.5.275 0-.557-1.125-1.849-2.5-1.292-1.375-2.574-2.5-2.849-2.5-.275 0 .557 1.125 1.849 2.5m7.378 31.5c0 6.325.163 8.912.361 5.75.198-3.162.198-8.338 0-11.5-.198-3.162-.361-.575-.361 5.75m-48.299-8.417c.048 1.165.285 1.402.604.605.289-.722.253-1.585-.079-1.917-.332-.332-.568.258-.525 1.312M105 140.5c1.292 1.375 2.574 2.5 2.849 2.5.275 0-.557-1.125-1.849-2.5-1.292-1.375-2.574-2.5-2.849-2.5-.275 0 .557 1.125 1.849 2.5m19.206 7.241c3.689.191 9.989.193 14 .002 4.012-.19.994-.347-6.706-.348-7.7-.002-10.982.154-7.294.346" fill="#1976D2" fill-rule="evenodd"/><path fill-opacity=".057" d="M220.451 97.5c0 19.8.134 28.042.297 18.315.164-9.727.164-25.927.001-36s-.297-2.115-.298 17.685M28.872 115.75c-.07 29.012-.233 53.762-.363 55-.13 1.238.153 2.25.628 2.25.474 0 .863-24.075.863-53.5V66h182.983l.267 53.75.268 53.75.241-55.25L214 63H29l-.128 52.75M99 108.5V120h23.5c12.925 0 23.5-.368 23.5-.818 0-3.009-3.433-11.275-5.942-14.308-5.402-6.531-9.93-7.874-26.547-7.874H99v11.5m-76.763 34.25L22 180l40 .023c136.81.077 156-.018 156-.773 0-.412-43.869-.633-97.488-.49l-97.487.26-.275-36.76-.275-36.76-.238 37.25m76.785-17.018c.027 3.442 3.378 10.979 6.29 14.15 1.203 1.311 4.438 3.444 7.188 4.741 4.521 2.131 6.369 2.358 19.282 2.367l14.281.01-.281-11.75-.282-11.75-23.25-.268-23.25-.269.022 2.769M1.809 184.074c-2.182.542-2.199.607-.309 1.194 7.984 2.478 18.898 2.742 105.988 2.568 102.535-.204 130.982-.75 134.012-2.573l2-1.202-2-.035c-23.134-.401-238.057-.358-239.691.048" fill="#1976D2" fill-rule="evenodd"/><path fill-opacity=".338" d="M99.217 108.25l.283 11.25 22.881.269 22.881.269-.675-4.269c-1.262-7.985-8.088-15.48-16.087-17.665-2.2-.601-9.752-1.095-16.783-1.098L98.934 97l.283 11.25m.451 19c.836 4.401 3.028 8.676 6.196 12.089 5.075 5.467 7.422 6.121 23.888 6.661l15.252.5-.002-11.25L145 124H99.05l.618 3.25" fill="#1976D2" fill-rule="evenodd"/></svg>