<svg xmlns="http://www.w3.org/2000/svg" width="256" height="256"><path fill-opacity=".016" d="M0 128.004v128.004l128.25-.254 128.25-.254.254-127.75L257.008 0H0v128.004m.485.496c0 70.4.119 99.053.265 63.672.146-35.38.146-92.98 0-128C.604 29.153.485 58.1.485 128.5" fill="#1976D2" fill-rule="evenodd"/><path fill-opacity=".028" d="M116.75.732c2.338.211 4.25.87 4.25 1.464 0 .719-2.072.894-6.182.521-3.401-.308-5.613-.209-4.918.221 1.604.991-7.917 2.334-10.523 1.485C97.828 3.918 97.762 4 99 4.89c1.289.927 1.244 1.082-.316 1.095-.998.008-2.798-.509-4-1.149-2.04-1.087-2.085-1.042-.684.674 1.385 1.696 1.327 1.792-.751 1.257-1.454-.375-2.019-.203-1.594.484.421.682-.117.861-1.499.5-1.186-.31-2.156-.108-2.156.45 0 .557-.675.754-1.5.437-.825-.316-1.5-.091-1.5.5 0 .592-.675.817-1.5.5-.825-.316-1.5-.124-1.5.429 0 .613-.874.538-2.25-.196-2.05-1.092-2.127-1.049-.859.488 1.215 1.472 1.183 1.607-.25 1.057-.902-.347-1.641-.228-1.641.264s-.94.965-2.089 1.052C72.544 12.91 60 20.917 60 22.249c0 .478-.422.608-.939.289-.516-.319-1.402.217-1.969 1.191-.567.974-1.055 1.321-1.084.771-.029-.55-.982.125-2.117 1.5-1.136 1.375-1.793 1.969-1.461 1.319.331-.649.076-1.506-.568-1.904-.712-.441-.904-.291-.489.38.797 1.289-2.731 3.477-3.902 2.42-.435-.393-.501-.205-.145.417.356.623-.293 2.328-1.442 3.788-1.654 2.103-2.379 2.414-3.486 1.495-.769-.638-1.432-.992-1.475-.787-.042.204-.237 1.226-.433 2.269-.456 2.427-2.666 4.637-5.093 5.093-1.043.196-2.065.391-2.269.433-.205.043.149.706.787 1.475.919 1.107.608 1.832-1.495 3.486-1.46 1.149-3.165 1.798-3.788 1.442-.622-.356-.81-.29-.417.145 1.057 1.171-1.131 4.699-2.42 3.902-.671-.415-.821-.223-.38.489.398.644 1.255.899 1.904.568.65-.332.056.325-1.319 1.461-1.375 1.135-2.05 2.088-1.5 2.117.55.029.203.517-.771 1.084-.974.567-1.51 1.453-1.191 1.969.319.517.189.939-.289.939-1.332 0-9.339 12.544-9.517 14.911C12.645 76.06 12.172 77 11.68 77s-.611.739-.264 1.641c.55 1.433.415 1.465-1.057.25-1.537-1.268-1.58-1.191-.488.859.734 1.376.809 2.25.196 2.25-.553 0-.745.675-.429 1.5.317.825.092 1.5-.5 1.5-.591 0-.816.675-.5 1.5.317.825.12 1.5-.437 1.5-.558 0-.76.97-.45 2.156.361 1.382.182 1.92-.5 1.499-.687-.425-.859.14-.484 1.594.535 2.078.439 2.136-1.257.751-1.716-1.401-1.761-1.356-.674.684.64 1.202 1.157 3.002 1.149 4-.013 1.56-.168 1.605-1.095.316-.89-1.238-.972-1.172-.467.377.849 2.606-.494 12.127-1.485 10.523-.43-.695-.529 1.517-.221 4.918.373 4.11.198 6.182-.521 6.182-.594 0-1.253-1.912-1.464-4.25-.21-2.338-.383 2.95-.383 11.75s.173 14.088.383 11.75c.211-2.338.87-4.25 1.464-4.25.719 0 .894 2.072.521 6.182-.308 3.401-.209 5.613.221 4.918.991-1.604 2.334 7.917 1.485 10.523-.505 1.549-.423 1.615.467.377.927-1.289 1.082-1.244 1.095.316.008.998-.509 2.798-1.149 4-1.087 2.04-1.042 2.085.674.684 1.696-1.385 1.792-1.327 1.257.751-.375 1.454-.203 2.019.484 1.594.682-.421.861.117.5 1.499-.31 1.186-.108 2.156.45 2.156.557 0 .754.675.437 1.5-.316.825-.091 1.5.5 1.5.592 0 .817.675.5 1.5-.316.825-.124 1.5.429 1.5.613 0 .538.874-.196 2.25-1.092 2.05-1.049 2.127.488.859 1.472-1.215 1.607-1.183 1.057.25-.347.902-.228 1.641.264 1.641s.965.94 1.052 2.089C12.91 184.456 20.917 197 22.249 197c.478 0 .608.422.289.939-.319.516.217 1.402 1.191 1.969.974.567 1.321 1.055.771 1.084-.55.029.125.982 1.5 2.117 1.375 1.136 1.969 1.793 1.319 1.461-.649-.331-1.506-.076-1.904.568-.441.712-.291.904.38.489 1.289-.797 3.477 2.731 2.42 3.902-.393.435-.205.501.417.145.623-.356 2.328.293 3.788 1.442 2.103 1.654 2.414 2.379 1.495 3.486-.638.769-.992 1.432-.787 1.475.204.042 1.226.237 2.269.433 2.427.456 4.637 2.666 5.093 5.093.196 1.043.391 2.065.433 2.269.043.205.706-.149 1.475-.787 1.107-.919 1.832-.608 3.486 1.495 1.149 1.46 1.798 3.165 1.442 3.788-.356.622-.29.81.145.417 1.171-1.057 4.699 1.131 3.902 2.42-.415.671-.223.821.489.38.644-.398.899-1.255.568-1.904-.332-.65.325-.056 1.461 1.319 1.135 1.375 2.088 2.05 2.117 1.5.029-.55.517-.203 1.084.771.567.974 1.453 1.51 1.969 1.191.517-.319.939-.189.939.289 0 1.332 12.544 9.339 14.911 9.517 1.149.087 2.089.56 2.089 1.052s.739.611 1.641.264c1.433-.55 1.465-.415.25 1.057-1.268 1.537-1.191 1.58.859.488 1.376-.734 2.25-.809 2.25-.196 0 .553.675.745 1.5.429.825-.317 1.5-.092 1.5.5 0 .591.675.816 1.5.5.825-.317 1.5-.12 1.5.437 0 .558.97.76 2.156.45 1.382-.361 1.92-.182 1.499.5-.425.687.14.859 1.594.484 2.078-.535 2.136-.439.751 1.257-1.401 1.716-1.356 1.761.684.674 1.202-.64 3.002-1.157 4-1.149 1.56.013 1.605.168.316 1.095-1.238.89-1.172.972.377.467 2.606-.849 12.127.494 10.523 1.485-.695.43 1.517.529 4.918.221 4.285-.389 6.182-.211 6.182.578 0 .751 2.557 1.139 7.5 1.139s7.5-.388 7.5-1.139c0-.789 1.897-.967 6.182-.578 3.401.308 5.613.209 4.918-.221-1.604-.991 7.917-2.334 10.523-1.485 1.549.505 1.615.423.377-.467-1.289-.927-1.244-1.082.316-1.095.998-.008 2.798.509 4 1.149 2.04 1.087 2.085 1.042.684-.674-1.385-1.696-1.327-1.792.751-1.257 1.454.375 2.019.203 1.594-.484-.421-.682.117-.861 1.499-.5 1.186.31 2.156.108 2.156-.45 0-.557.675-.754 1.5-.437.825.316 1.5.091 1.5-.5 0-.592.675-.817 1.5-.5.825.316 1.5.124 1.5-.429 0-.613.874-.538 2.25.196 2.05 1.092 2.127 1.049.859-.488-1.215-1.472-1.183-1.607.25-1.057.902.347 1.641.228 1.641-.264s.94-.965 2.089-1.052c2.367-.178 14.911-8.185 14.911-9.517 0-.478.422-.608.939-.289.516.319 1.402-.217 1.969-1.191.567-.974 1.055-1.321 1.084-.771.029.55.982-.125 2.117-1.5 1.136-1.375 1.793-1.969 1.461-1.319-.331.649-.076 1.506.568 1.904.712.441.904.291.489-.38-.797-1.289 2.731-3.477 3.902-2.42.435.393.501.205.145-.417-.356-.623.293-2.328 1.442-3.788 1.654-2.103 2.379-2.414 3.486-1.495.769.638 1.432.992 1.475.787.042-.204.237-1.226.433-2.269.456-2.427 2.666-4.637 5.093-5.093 1.043-.196 2.065-.391 2.269-.433.205-.043-.149-.706-.787-1.475-.919-1.107-.608-1.832 1.495-3.486 1.46-1.149 3.165-1.798 3.788-1.442.622.356.81.29.417-.145-1.057-1.171 1.131-4.699 2.42-3.902.671.415.821.223.38-.489-.398-.644-1.255-.899-1.904-.568-.65.332-.056-.325 1.319-1.461 1.375-1.135 2.05-2.088 1.5-2.117-.55-.029-.203-.517.771-1.084.974-.567 1.51-1.453 1.191-1.969-.319-.517-.189-.939.289-.939 1.332 0 9.339-12.544 9.517-14.911.087-1.149.56-2.089 1.052-2.089s.611-.739.264-1.641c-.55-1.433-.415-1.465 1.057-.25 1.537 1.268 1.58 1.191.488-.859-.734-1.376-.809-2.25-.196-2.25.553 0 .745-.675.429-1.5-.317-.825-.092-1.5.5-1.5.591 0 .816-.675.5-1.5-.317-.825-.12-1.5.437-1.5.558 0 .76-.97.45-2.156-.361-1.382-.182-1.92.5-1.499.687.425.859-.14.484-1.594-.535-2.078-.439-2.136 1.257-.751 1.716 1.401 1.761 1.356.674-.684-.64-1.202-1.157-3.002-1.149-4 .013-1.56.168-1.605 1.095-.316.89 1.238.972 1.172.467-.377-.849-2.606.494-12.127 1.485-10.523.43.695.529-1.517.221-4.918-.372-4.101-.198-6.182.518-6.182.593 0 1.255 1.688 1.471 3.75.215 2.063.386-3.45.38-12.25-.007-8.8-.181-13.862-.387-11.25-.206 2.612-.862 4.75-1.459 4.75-.722 0-.897-2.063-.523-6.182.308-3.401.209-5.613-.221-4.918-.991 1.604-2.334-7.917-1.485-10.523.505-1.549.423-1.615-.467-.377-.927 1.289-1.082 1.244-1.095-.316-.008-.998.509-2.798 1.149-4 1.087-2.04 1.042-2.085-.674-.684-1.696 1.385-1.792 1.327-1.257-.751.375-1.454.203-2.019-.484-1.594-.682.421-.861-.117-.5-1.499.31-1.186.108-2.156-.45-2.156-.557 0-.754-.675-.437-1.5.316-.825.091-1.5-.5-1.5-.592 0-.817-.675-.5-1.5.316-.825.124-1.5-.429-1.5-.613 0-.538-.874.196-2.25 1.092-2.05 1.049-2.127-.488-.859-1.472 1.215-1.607 1.183-1.057-.25.347-.902.228-1.641-.264-1.641s-.965-.94-1.052-2.089C244.09 72.544 236.083 60 234.751 60c-.478 0-.608-.422-.289-.939.319-.516-.217-1.402-1.191-1.969-.974-.567-1.321-1.055-.771-1.084.55-.029-.125-.982-1.5-2.117-1.375-1.136-1.969-1.793-1.319-1.461.649.331 1.506.076 1.904-.568.441-.712.291-.904-.38-.489-1.289.797-3.477-2.731-2.42-3.902.393-.435.205-.501-.417-.145-.623.356-2.328-.293-3.788-1.442-2.103-1.654-2.414-2.379-1.495-3.486.638-.769.992-1.432.787-1.475-.204-.042-1.226-.237-2.269-.433-2.427-.456-4.637-2.666-5.093-5.093a273.674 273.674 0 00-.433-2.269c-.043-.205-.706.149-1.475.787-1.107.919-1.832.608-3.486-1.495-1.149-1.46-1.798-3.165-1.442-3.788.356-.622.29-.81-.145-.417-1.171 1.057-4.699-1.131-3.902-2.42.415-.671.223-.821-.489-.38-.644.398-.899 1.255-.568 1.904.332.65-.325.056-1.461-1.319-1.135-1.375-2.088-2.05-2.117-1.5-.029.55-.517.203-1.084-.771-.567-.974-1.453-1.51-1.969-1.191-.517.319-.939.189-.939-.289 0-1.332-12.544-9.339-14.911-9.517-1.149-.087-2.089-.56-2.089-1.052s-.739-.611-1.641-.264c-1.433.55-1.465.415-.25-1.057 1.268-1.537 1.191-1.58-.859-.488-1.376.734-2.25.809-2.25.196 0-.553-.675-.745-1.5-.429-.825.317-1.5.092-1.5-.5 0-.591-.675-.816-1.5-.5-.825.317-1.5.12-1.5-.437 0-.558-.97-.76-2.156-.45-1.382.361-1.92.182-1.499-.5.425-.687-.14-.859-1.594-.484-2.078.535-2.136.439-.751-1.257 1.401-1.716 1.356-1.761-.684-.674-1.202.64-3.002 1.157-4 1.149-1.56-.013-1.605-.168-.316-1.095 1.238-.89 1.172-.972-.377-.467-2.606.849-12.127-.494-10.523-1.485.695-.43-1.517-.529-4.918-.221-4.11.373-6.182.198-6.182-.521 0-.594 1.912-1.253 4.25-1.464 2.338-.21-2.95-.383-11.75-.383s-14.088.173-11.75.383M.405 128.5c.001 8.8.154 12.266.34 7.703.185-4.564.184-11.764-.003-16-.187-4.237-.338-.503-.337 8.297m97.417-5.75c17.227.153 45.127.153 62-.001 16.873-.153 2.778-.279-31.322-.279s-47.905.126-30.678.28m0 12c17.227.153 45.127.153 62-.001 16.873-.153 2.778-.279-31.322-.279s-47.905.126-30.678.28" fill="#1976D2" fill-rule="evenodd"/><path fill-opacity=".34" d="M67 92.439V122h123v-6.79c0-21.895-13.363-40.816-34.621-49.019l-6.879-2.654-40.75-.33L67 62.878v29.561m0 49.879c0 23.871 18.004 45.659 41.799 50.585 3.303.684 19.6 1.097 43.25 1.097H190v-59H67v7.318" fill="#1976D2" fill-rule="evenodd"/><path fill-opacity=".118" d="M67.015 141.25c.058 20.67 14.079 40.994 33.76 48.935 5.582 2.252 6.768 2.323 47.476 2.813l41.751.502-.001-28.75L190 136H67l.015 5.25" fill="#1976D2" fill-rule="evenodd"/></svg>