<?xml version="1.0" encoding="UTF-8"?>
<svg width="169px" height="43px" viewBox="0 0 169 43" version="1.1" xmlns="http://www.w3.org/2000/svg" xmlns:xlink="http://www.w3.org/1999/xlink">
    <!-- Generator: Sketch 50.2 (55047) - http://www.bohemiancoding.com/sketch -->
    <title>logo_arvore</title>
    <desc>Created with Sketch.</desc>
    <defs>
        <polygon id="path-1" points="0.14174708 0.0412989289 40.5521203 0.0412989289 40.5521203 40.9273742 0.14174708 40.9273742"></polygon>
        <path d="M0.142543291,20.2625583 C0.0215741197,31.552277 8.96944027,40.8034227 20.1274979,40.925815 C31.2859409,41.0485971 40.4299003,31.9958518 40.5508695,20.7061331 C40.6718387,9.41641433 31.7243578,0.165268635 20.5659149,0.0424865122 C20.4915612,0.0417069432 20.416437,0.0413171587 20.3424686,0.0413171587 C9.28496177,0.0409273742 0.262741958,9.04806797 0.142543291,20.2625583" id="path-3"></path>
        <path d="M0.142543291,20.2625583 C0.0215741197,31.552277 8.96944027,40.8034227 20.1274979,40.925815 C31.2859409,41.0485971 40.4299003,31.9958518 40.5508695,20.7061331 C40.6718387,9.41641433 31.7243578,0.165268635 20.5659149,0.0424865122 C20.4915612,0.0417069432 20.416437,0.0413171587 20.3424686,0.0413171587 C9.28496177,0.0409273742 0.262741958,9.04806797 0.142543291,20.2625583" id="path-5"></path>
        <path d="M0.142543291,20.2625583 C0.0215741197,31.552277 8.96944027,40.8034227 20.1274979,40.925815 C31.2859409,41.0485971 40.4299003,31.9958518 40.5508695,20.7061331 C40.6718387,9.41641433 31.7243578,0.165268635 20.5659149,0.0424865122 C20.4915612,0.0417069432 20.416437,0.0413171587 20.3424686,0.0413171587 C9.28496177,0.0409273742 0.262741958,9.04806797 0.142543291,20.2625583" id="path-7"></path>
        <path d="M0.142543291,20.2625583 C0.0215741197,31.552277 8.96944027,40.8034227 20.1274979,40.925815 C31.2859409,41.0485971 40.4299003,31.9958518 40.5508695,20.7061331 C40.6718387,9.41641433 31.7243578,0.165268635 20.5659149,0.0424865122 C20.4915612,0.0417069432 20.416437,0.0413171587 20.3424686,0.0413171587 C9.28496177,0.0409273742 0.262741958,9.04806797 0.142543291,20.2625583" id="path-9"></path>
        <path d="M0.142543291,20.2625583 C0.0215741197,31.552277 8.96944027,40.8034227 20.1274979,40.925815 C31.2859409,41.0485971 40.4299003,31.9958518 40.5508695,20.7061331 C40.6718387,9.41641433 31.7243578,0.165268635 20.5659149,0.0424865122 C20.4915612,0.0417069432 20.416437,0.0413171587 20.3424686,0.0413171587 C9.28496177,0.0409273742 0.262741958,9.04806797 0.142543291,20.2625583 Z" id="path-11"></path>
        <path d="M0.142543291,20.2625583 C0.0215741197,31.552277 8.96944027,40.8034227 20.1274979,40.925815 C31.2859409,41.0485971 40.4299003,31.9958518 40.5508695,20.7061331 C40.6718387,9.41641433 31.7243578,0.165268635 20.5659149,0.0424865122 C20.4915612,0.0417069432 20.416437,0.0413171587 20.3424686,0.0413171587 C9.28496177,0.0409273742 0.262741958,9.04806797 0.142543291,20.2625583 Z" id="path-13"></path>
        <path d="M0.142543291,20.2625583 C0.0215741197,31.552277 8.96944027,40.8034227 20.1274979,40.925815 C31.2859409,41.0485971 40.4299003,31.9958518 40.5508695,20.7061331 C40.6718387,9.41641433 31.7243578,0.165268635 20.5659149,0.0424865122 C20.4915612,0.0417069432 20.416437,0.0413171587 20.3424686,0.0413171587 C9.28496177,0.0409273742 0.262741958,9.04806797 0.142543291,20.2625583" id="path-15"></path>
        <path d="M0.142543291,20.2625583 C0.0215741197,31.552277 8.96944027,40.8034227 20.1274979,40.925815 C31.2859409,41.0485971 40.4299003,31.9958518 40.5508695,20.7061331 C40.6718387,9.41641433 31.7243578,0.165268635 20.5659149,0.0424865122 C20.4915612,0.0417069432 20.416437,0.0413171587 20.3424686,0.0413171587 C9.28496177,0.0409273742 0.262741958,9.04806797 0.142543291,20.2625583" id="path-17"></path>
        <polygon id="path-19" points="0.0709369113 0.0906222083 20.9462056 0.0906222083 20.9462056 21.5906337 0.0709369113 21.5906337"></polygon>
    </defs>
    <g id="Page-1" stroke="none" stroke-width="1" fill="none" fill-rule="evenodd">
        <g id="Artboard-2" transform="translate(0.000000, -1.000000)">
            <g id="logo_arvore" transform="translate(0.000000, 1.000000)">
                <g id="Group-3" transform="translate(4.857143, 1.228571)">
                    <mask id="mask-2" fill="white">
                        <use xlink:href="#path-1"></use>
                    </mask>
                    <g id="Clip-2"></g>
                    <path d="M40.550908,20.706172 C40.6718772,9.41645331 31.7243963,0.165307613 20.5659534,0.0425254907 C9.40751048,-0.0798668473 0.26393624,8.97287853 0.142967068,20.2625973 C0.0216126449,31.552316 8.96909354,40.8034617 20.1275365,40.9262438 C31.2859794,41.0486361 40.4299389,31.9958907 40.550908,20.706172" id="Fill-1" fill="#7E50E5" mask="url(#mask-2)"></path>
                </g>
                <g id="Group-28" transform="translate(4.857143, 1.228571)">
                    <g id="Group-6">
                        <mask id="mask-4" fill="white">
                            <use xlink:href="#path-3"></use>
                        </mask>
                        <g id="Clip-5"></g>
                        <path d="M31.0713554,30.0184749 C31.5926016,30.3225068 32.0826423,30.6327753 32.5403218,30.942654 C31.9820915,30.5505308 31.48319,30.2468886 31.0713554,30.0184749" id="Fill-4" fill="#BA8271" mask="url(#mask-4)"></path>
                    </g>
                    <g id="Group-9">
                        <mask id="mask-6" fill="white">
                            <use xlink:href="#path-5"></use>
                        </mask>
                        <g id="Clip-8"></g>
                        <path d="M25.2298543,37.7661438 C25.0753682,37.8889259 24.8958407,37.9509016 24.6947391,37.9509016 C24.6469678,37.9509016 24.5980408,37.9473936 24.5475728,37.9403775 C23.4087674,37.7813454 21.9374895,35.7532965 21.8750787,35.6671542 C21.8153646,35.5841301 21.8334715,35.4675845 21.9155302,35.4071679 C21.9975889,35.3463615 22.112394,35.3650712 22.1721081,35.4480953 C22.5700735,36.0004199 23.780921,37.458214 24.598426,37.5724209 C24.7586909,37.5954182 24.8912177,37.5626763 25.0025555,37.4738054 C25.7433954,36.8836716 24.9428415,34.8630287 24.5718436,34.1341317 C24.5256134,34.0425323 24.5610566,33.9302744 24.6512056,33.8835002 C24.7417398,33.8363363 24.8526925,33.872976 24.8989227,33.963406 C25.0495563,34.2600321 26.3393805,36.8825023 25.2298543,37.7661438 M18.6200834,39.1409138 C18.5657628,39.1545562 18.5160653,39.1607928 18.4702203,39.1607928 C18.3257507,39.1607928 18.2217327,39.1019353 18.1546988,39.044637 C17.7536513,38.7031858 17.7937175,37.7002702 17.8934978,36.3212126 C17.925859,35.8756889 17.968622,35.2910121 17.9351051,35.0458376 C17.7783075,35.2075982 17.552935,35.6386999 17.3660877,35.9961323 C16.8537023,36.975271 16.214569,38.1937374 15.3758751,37.7447056 C14.1904543,37.1116956 15.3361942,33.9532717 15.4706471,33.5950597 C15.5068608,33.4991727 15.6124199,33.4512292 15.7079625,33.4874792 C15.8023492,33.5241189 15.8505058,33.6313096 15.8142921,33.7271966 C15.351219,34.9612544 14.8688833,37.0536177 15.5469271,37.4157275 C16.0623944,37.6913052 16.6052147,36.6552579 17.0409349,35.8222884 C17.4026866,35.1312005 17.6203541,34.7355692 17.8900306,34.6357843 C17.9809501,34.6018731 18.0745663,34.6151258 18.1477643,34.6704752 C18.3604234,34.8330153 18.3357673,35.3023159 18.2602579,36.3484975 C18.1974618,37.2110906 18.103075,38.5145301 18.3912436,38.7604841 C18.4158997,38.7815324 18.4517282,38.7998523 18.5310901,38.7803631 C19.6282882,38.5036161 20.6230092,36.1189144 20.5725412,35.7801917 C20.5571311,35.6788477 20.6260913,35.5841301 20.7266421,35.5685387 C20.8275781,35.5525575 20.9204239,35.6231085 20.9354487,35.7244525 C21.0175074,36.2709304 19.8914154,38.8205109 18.6200834,39.1409138 M24.4878587,28.9823497 C23.2985853,28.667014 21.8997348,28.4752401 20.2685773,28.5013556 C18.3808418,28.5317588 16.6957489,28.647135 15.2414221,28.9648094 C14.8762031,28.4935599 14.0598538,28.3126999 12.9160402,28.5153879 C9.08046994,29.8956148 6.23692391,32.0862038 4.72403876,33.4438233 C5.83587643,34.8143056 7.12146282,36.0339414 8.54573997,37.0731069 C8.9745256,36.3520056 9.44029543,35.7264014 9.94420523,35.1998025 L10.1033144,33.0563775 C10.1106342,32.9538642 10.2034799,32.8805847 10.3001782,32.8848723 C10.4011143,32.8922782 10.4773942,32.9819286 10.4696891,33.0840522 L10.0975356,38.0990198 C13.0420177,39.8565581 16.4642124,40.885979 20.127575,40.9261269 C23.8629797,40.9670542 27.3695447,39.9758322 30.3906919,38.2210223 L30.1657047,33.2988234 C30.1606964,33.1963101 30.2392878,33.1093882 30.3406092,33.1047108 C30.4446272,33.0980844 30.5278417,33.1791596 30.5324647,33.2820627 L30.6515076,35.8819254 C31.0136446,36.3356346 31.3526665,36.8458625 31.668188,37.4133888 C33.1309904,36.4100835 34.4562577,35.2181224 35.6116289,33.8710271 C34.0702351,32.4105045 30.9951525,29.9076982 26.7735596,28.4335331 C25.7780681,28.3555762 24.9212673,28.5399443 24.4878587,28.9823497" id="Fill-7" fill="#BA8271" mask="url(#mask-6)"></path>
                    </g>
                    <g id="Group-12">
                        <mask id="mask-8" fill="white">
                            <use xlink:href="#path-7"></use>
                        </mask>
                        <g id="Clip-11"></g>
                        <path d="M31.0713554,30.0184749 C29.2414078,28.9504653 27.033913,27.9647003 24.5043475,27.3928864 C24.4072639,27.3722278 24.3070984,27.4338138 24.285139,27.5339884 C24.2631796,27.634163 24.3255905,27.7335581 24.4246003,27.7561656 C25.2428758,27.9409235 26.0253229,28.1720657 26.7734826,28.4332213 C30.9954607,29.9077761 34.0701581,32.4105825 35.6115519,33.8711051 C35.6916843,33.7775568 35.7733578,33.6851779 35.8519492,33.5904602 C35.0933877,32.8728669 33.9742303,31.9128277 32.5403218,30.942654 C32.0826423,30.6327753 31.5926016,30.3225068 31.0713554,30.0184749" id="Fill-10" fill="#524666" mask="url(#mask-8)"></path>
                    </g>
                    <g id="Group-15">
                        <mask id="mask-10" fill="white">
                            <use xlink:href="#path-9"></use>
                        </mask>
                        <g id="Clip-14"></g>
                        <path d="M15.9436982,27.6626953 C16.0430933,27.6424265 16.1074304,27.5445906 16.0877825,27.4440261 C16.0677494,27.343072 15.9710511,27.2775882 15.8712708,27.2982467 C10.4349779,28.4025063 6.42180641,31.4287933 4.49438996,33.1543693 C4.57028464,33.2518154 4.64656456,33.348482 4.72400024,33.4439792 C6.23688538,32.0859699 9.08043141,29.895381 12.9160017,28.5155438 C13.866804,28.173313 14.8761646,27.8794155 15.9436982,27.6626953" id="Fill-13" fill="#524666" mask="url(#mask-10)"></path>
                    </g>
                    <g id="Group-18">
                        <mask id="mask-12" fill="white">
                            <use xlink:href="#path-11"></use>
                        </mask>
                        <g id="Clip-17"></g>
                        <path d="M30.5325803,33.2819458 C30.5279573,33.1794325 30.4447428,33.0979675 30.3407247,33.1045938 C30.2394034,33.1092712 30.160812,33.196583 30.165435,33.2987065 L30.3904223,38.2209054 C30.5106209,38.151134 30.6304343,38.0821421 30.7487067,38.0104217 L30.6820581,36.5506787 C30.9193734,36.8874526 31.1424344,37.2472237 31.3516263,37.6284329 C31.4583412,37.5582717 31.5631298,37.4857718 31.6683036,37.4136616 C31.3527821,36.8457456 31.0137602,36.3355177 30.6516232,35.8818085 L30.5325803,33.2819458 Z" id="Fill-16" fill="#524666" mask="url(#mask-12)"></path>
                    </g>
                    <g id="Group-21">
                        <mask id="mask-14" fill="white">
                            <use xlink:href="#path-13"></use>
                        </mask>
                        <g id="Clip-20"></g>
                        <path d="M10.4696891,33.0839352 C10.4773942,32.9818117 10.4011143,32.892551 10.3001782,32.8847554 C10.2034799,32.8804677 10.1106342,32.954137 10.1033144,33.0562605 L9.94420523,35.1996856 C9.44029543,35.7262845 8.9745256,36.3518886 8.54573997,37.07299 C8.64821704,37.1478286 8.74838259,37.2261753 8.85240067,37.299065 C9.17215995,36.7541462 9.52081313,36.2567812 9.89874548,35.8116473 L9.74464462,37.888809 C9.86099077,37.9613089 9.98003368,38.0291314 10.0975356,38.0992926 L10.4696891,33.0839352 Z" id="Fill-19" fill="#524666" mask="url(#mask-14)"></path>
                    </g>
                    <g id="Group-24">
                        <mask id="mask-16" fill="white">
                            <use xlink:href="#path-15"></use>
                        </mask>
                        <g id="Clip-23"></g>
                        <path d="M20.7265265,35.5686946 C20.6259757,35.5838962 20.5570155,35.6790036 20.5724256,35.7803476 C20.6232789,36.1190703 19.6281726,38.503772 18.5309746,38.780519 C18.4516126,38.8000082 18.4161694,38.7816884 18.391128,38.7602502 C18.1029594,38.514686 18.1977315,37.2112465 18.2601423,36.3482636 C18.336037,35.3024718 18.3606931,34.8331712 18.1476487,34.6702413 C18.0744508,34.6148919 17.9808345,34.602029 17.889915,34.6359403 C17.6202385,34.7353353 17.402571,35.1313564 17.0412045,35.8220545 C16.6050991,36.6554138 16.0626641,37.6914611 15.5471967,37.4158834 C14.8687677,37.0533838 15.3511034,34.9610205 15.8141765,33.7273525 C15.8503902,33.6310758 15.8026189,33.523885 15.7078469,33.4872453 C15.6123044,33.4509953 15.5067453,33.4989388 15.4705316,33.5952156 C15.3360786,33.9530378 14.1903387,37.1118515 15.3757595,37.7444718 C16.2144534,38.1935035 16.853972,36.9750371 17.3659721,35.9962882 C17.5532046,35.638466 17.7785771,35.2077541 17.9349895,35.0459936 C17.9685064,35.291168 17.9257434,35.8758448 17.8937675,36.3209787 C17.793602,37.7004261 17.7535357,38.7033417 18.1545832,39.0447929 C18.2216171,39.1017014 18.3260204,39.1605589 18.47049,39.1605589 C18.5159497,39.1605589 18.5660325,39.1547121 18.6199678,39.1410697 C19.8916851,38.820277 21.0177771,36.2710863 20.9357184,35.7246084 C20.9206936,35.6228746 20.8274625,35.5523236 20.7265265,35.5686946" id="Fill-22" fill="#524666" mask="url(#mask-16)"></path>
                    </g>
                    <g id="Group-27">
                        <mask id="mask-18" fill="white">
                            <use xlink:href="#path-17"></use>
                        </mask>
                        <g id="Clip-26"></g>
                        <path d="M24.6511285,33.8834612 C24.5609795,33.9302354 24.5255363,34.0424933 24.5717666,34.1340927 C24.9431497,34.8629897 25.7437036,36.8840224 25.0024785,37.4741562 C24.8911406,37.5626373 24.7586139,37.5953792 24.598349,37.5723819 C23.780844,37.458175 22.5699965,36.0003809 22.1724163,35.4480563 C22.112317,35.3650322 21.9975118,35.3463225 21.9154531,35.4071289 C21.8333944,35.4679353 21.8156728,35.5840911 21.8750016,35.6671152 C21.9374125,35.7532576 23.4090756,37.7813064 24.547881,37.9403385 C24.5979637,37.9473546 24.6468908,37.9512525 24.6950473,37.9512525 C24.8957636,37.9512525 25.0752911,37.8892767 25.2297773,37.7661048 C26.3393034,36.8824633 25.0494792,34.2599931 24.8988457,33.9637569 C24.8526154,33.8729371 24.7416628,33.8362973 24.6511285,33.8834612" id="Fill-25" fill="#524666" mask="url(#mask-18)"></path>
                    </g>
                </g>
                <g id="Group-86">
                    <path d="M24.8671815,7.18623561 C24.8671815,7.18623561 22.5237858,1.10137832 26.1633245,0.554284348 C29.3747722,0.0716693101 29.6558265,4.64498412 28.9152828,6.72589511" id="Fill-29" fill="#BA8271"></path>
                    <path d="M24.8671815,7.37267742 C24.7944291,7.37267742 24.7255056,7.32773756 24.6971705,7.25466143 C24.6382027,7.10108434 23.2631807,3.47502366 24.3705501,1.52463366 C24.73661,0.879453557 25.3308829,0.491016838 26.1365209,0.369874602 C27.1221256,0.22215923 27.9476748,0.524624039 28.5235682,1.24483417 C29.6688454,2.67782959 29.5865202,5.38555396 29.0868255,6.78963156 C29.0523638,6.88615457 28.9470642,6.93578381 28.8528689,6.90100426 C28.7579077,6.86583393 28.7088955,6.75875983 28.7433572,6.66223682 C29.2016979,5.37500287 29.2863205,2.78881151 28.2402164,1.48047536 C27.743585,0.858742142 27.0532022,0.60825126 26.1897451,0.73877225 C25.4897896,0.843892449 24.998136,1.16198851 24.686449,1.71142717 C23.6667656,3.5078493 25.0234079,7.08232683 25.0371926,7.11827872 C25.0739517,7.21402017 25.0280028,7.32226662 24.9338075,7.35978163 C24.9119817,7.36837882 24.8893902,7.37267742 24.8671815,7.37267742" id="Fill-31" fill="#524666"></path>
                    <path d="M50.9826808,20.8230218 C51.2909216,17.4021213 49.0555058,14.3954492 45.9899459,14.1078341 C42.9240031,13.8198282 40.1888927,16.3599073 39.8806519,19.7808077 C39.5724111,23.2017082 41.807444,26.2083803 44.8733868,26.4959954 C47.9393296,26.7840013 50.67444,24.2439222 50.9826808,20.8230218" id="Fill-33" fill="#EFD1C4"></path>
                    <path d="M45.5163273,14.2718841 C42.7375653,14.2718841 40.3420941,16.6990274 40.0625714,19.797924 C39.7642862,23.1109687 41.9296299,26.0328413 44.8898901,26.3106869 C45.0415216,26.324755 45.1950676,26.3317891 45.3466991,26.3317891 C48.125844,26.3321799 50.5216981,23.9050366 50.8008379,20.80614 C50.9459599,19.1976837 50.5216981,17.6341673 49.6061655,16.4032059 C48.6944621,15.1769338 47.4044457,14.4278059 45.9735192,14.2933771 C45.8215048,14.2793089 45.6679588,14.2718841 45.5163273,14.2718841 M45.3466991,26.7045946 C45.1839633,26.7045946 45.01893,26.6971697 44.8565771,26.6819292 C41.6956732,26.3849354 39.3821443,23.2817402 39.698809,19.763926 C39.9951796,16.4751097 42.5507063,13.8990786 45.5163273,13.8990786 C45.6790631,13.8990786 45.8440964,13.9068943 46.0068322,13.9221347 C47.5411437,14.0663331 48.9226751,14.8674349 49.8971755,16.177725 C50.8678467,17.4833257 51.3181463,19.1390665 51.1646003,20.840138 C50.8682297,24.1285635 48.312703,26.7045946 45.3466991,26.7045946" id="Fill-35" fill="#524666"></path>
                    <path d="M48.9272317,20.5803856 C48.9214881,20.5803856 48.9161274,20.5799948 48.9103838,20.579604 C48.809679,20.5702253 48.7357778,20.479564 48.7449676,20.3771792 C48.9283804,18.3415989 47.6008391,16.5471307 45.7854732,16.37675 C44.9086143,16.2935135 44.0497521,16.5991046 43.3662617,17.2337336 C42.6777934,17.873052 42.2497025,18.7698953 42.160485,19.7585723 C42.1512952,19.8613478 42.0593973,19.9363778 41.9621387,19.9273898 C41.861434,19.9180111 41.7875328,19.826959 41.7967226,19.7245743 C41.8943641,18.6425006 42.3645748,17.6600761 43.1204349,16.9582327 C43.8808898,16.2520907 44.839308,15.9125017 45.8187862,16.0055076 C47.8347957,16.1946458 49.3105224,18.1712182 49.10873,20.4111772 C49.0999231,20.5077002 49.0202783,20.5803856 48.9272317,20.5803856" id="Fill-37" fill="#524666"></path>
                    <path d="M0.19918864,20.2606873 C-0.0362996598,16.8335344 2.26229589,13.877273 5.33359939,13.6576539 C8.40490289,13.4376439 11.0852575,16.0375126 11.3207458,19.4646656 C11.5562341,22.8914277 9.25763857,25.8480799 6.18633507,26.067699 C3.11541448,26.287709 0.434676939,23.6874495 0.19918864,20.2606873" id="Fill-39" fill="#EFD1C4"></path>
                    <path d="M5.69590675,13.8311608 C5.58026859,13.8311608 5.46348171,13.8354594 5.34631193,13.8436658 C2.38069098,14.0558601 0.153316285,16.928885 0.381146428,20.2477915 C0.608210756,23.5432511 3.19819914,26.0923182 6.17377569,25.8816871 C7.60738251,25.7793023 8.91309812,25.0587014 9.85045643,23.8531408 C10.7916438,22.6421092 11.2492186,21.0883623 11.1385583,19.4775614 C10.9210666,16.3114504 8.53057323,13.8311608 5.69590675,13.8311608 M5.82418087,26.2669975 C2.7988263,26.2669975 0.24827742,23.634694 0.0170011065,20.2739739 C-0.224996626,16.7499071 2.15439247,13.6982951 5.3206571,13.4716419 C8.51066202,13.2457703 11.2622375,15.9531039 11.5027036,19.451379 C11.6198734,21.1555767 11.1347292,22.8007665 10.1364886,24.0848742 C9.13480174,25.3732805 7.73642244,26.1435106 6.19943051,26.253711 C6.07383675,26.2626989 5.94824299,26.2669975 5.82418087,26.2669975" id="Fill-41" fill="#524666"></path>
                    <path d="M2.26336803,20.0637335 C2.1684069,20.0637335 2.08799626,19.9887034 2.08148682,19.8906173 C1.92717498,17.6463597 3.44463861,15.7033945 5.46409437,15.5584146 C6.44778452,15.488074 7.39663006,15.8475929 8.14176864,16.5709293 C8.88269524,17.2895763 9.3318461,18.282161 9.40613021,19.3661887 C9.41340546,19.4685734 9.33758972,19.5576716 9.23688496,19.5650964 C9.12967078,19.5690042 9.04887723,19.4947557 9.04198489,19.392371 C8.97344439,18.4013494 8.56449886,17.4951273 7.89019821,16.8409592 C7.21972665,16.1910897 6.36584225,15.8694766 5.48974919,15.9304385 C3.67093712,16.0605687 2.3058708,17.8253376 2.44563215,19.864435 C2.45290739,19.9668197 2.37709165,20.0559178 2.2763869,20.0633427 C2.271792,20.0633427 2.26758002,20.0637335 2.26336803,20.0637335" id="Fill-43" fill="#524666"></path>
                    <path d="M42.6728539,18.906278 C42.6008673,25.6730489 35.4274724,31.0802912 25.121126,30.966183 C14.8151624,30.8520749 8.47574083,25.295554 8.5477275,18.5283924 C8.61971416,11.7616216 15.0755397,6.3465636 25.3818862,6.46067177 C35.6878498,6.57477994 42.7448406,12.1395072 42.6728539,18.906278" id="Fill-45" fill="#BA8271"></path>
                    <path d="M20.8577539,30.7793504 C20.8470325,30.7793504 20.8363111,30.7785689 20.8255897,30.776615 C20.0988306,30.6437493 19.6025821,30.5112744 19.5819051,30.5058035 C12.7098587,28.8824975 8.30527027,24.179834 8.36500389,18.5263994 C8.4293324,12.5048487 13.3588875,7.82133355 20.9232311,6.59427993 C21.023553,6.57747633 21.1165996,6.64703542 21.1322988,6.74863859 C21.1483809,6.85024176 21.0802233,6.9459832 20.9810502,6.96200524 C13.6008852,8.15935947 8.792329,12.7002394 8.73029794,18.5303072 C8.67133014,24.0860465 12.8630219,28.5358744 19.669591,30.1439399 C19.6795466,30.1466753 20.1784755,30.2799318 20.8895353,30.4096712 C20.9890913,30.4276472 21.0549514,30.524561 21.0373377,30.6257734 C21.0216385,30.7160439 20.944674,30.7793504 20.8577539,30.7793504" id="Fill-47" fill="#524666"></path>
                    <path d="M29.1070048,30.9115909 C29.0174044,30.9115909 28.9392912,30.8443765 28.9262723,30.7513705 C28.9121047,30.6493765 28.9817939,30.5551982 29.0817329,30.5403485 C29.7089358,30.4508596 30.1856561,30.3586352 30.190251,30.3574628 C37.4892395,28.9991067 42.4318135,24.3964833 42.4900154,18.9044414 C42.5566414,12.6593637 36.5514983,7.67650996 27.8866776,6.78748226 C27.7863558,6.77732195 27.7132204,6.6858791 27.723176,6.58349437 C27.7335145,6.48110964 27.8254124,6.40568883 27.9234368,6.41663071 C36.7835404,7.32597904 42.92385,12.4628006 42.8553095,18.9083492 C42.795193,24.5844491 37.732386,29.332834 30.2572598,30.7244066 C30.2538137,30.7247974 29.7686695,30.8185849 29.1326596,30.9100277 C29.1242356,30.9112001 29.1154287,30.9115909 29.1070048,30.9115909" id="Fill-49" fill="#524666"></path>
                    <path d="M20.3327107,9.75828068 C20.3327107,9.75828068 21.7904407,14.0127179 23.3527046,13.5664455 C24.9145855,13.1201731 24.7150906,9.28738908 24.7150906,9.28738908 C24.7150906,9.28738908 27.0228759,14.1272168 28.7053728,14.1381587 C30.4491349,14.1498821 30.2672537,9.20454342 30.2672537,9.20454342 C30.2672537,9.20454342 40.304416,10.045505 40.2044771,19.4480964 C40.1045381,28.8502971 25.9419272,29.0245856 25.0842137,29.0152069 C24.2265002,29.0054373 10.7358924,28.4591249 10.8369801,18.957275 C10.9380678,9.45542509 20.3327107,9.75828068 20.3327107,9.75828068" id="Fill-51" fill="#EFD1C4"></path>
                    <path d="M19.0511949,18.8986969 C19.0622992,17.8599999 18.2459398,17.0084872 17.2277879,16.9971545 C16.210019,16.9858219 15.3756629,17.8189678 15.3645586,18.8580556 C15.3538371,19.8967526 16.1701966,20.7482653 17.1879655,20.7595979 C18.2057345,20.7705398 19.0400906,19.9373938 19.0511949,18.8986969" id="Fill-53" fill="#524666"></path>
                    <path d="M14.2906553,15.434068 C14.2133079,15.434068 14.1348119,15.4188275 14.0589961,15.3871742 C13.748075,15.2562624 13.5998896,14.8932265 13.7281638,14.575912 C13.7737298,14.4621946 14.8745897,11.7998009 17.523163,12.0608429 C18.4027022,12.146424 19.1577964,12.5579168 19.7065033,13.2515538 C19.9178684,13.5184575 19.8768973,13.9096297 19.6153713,14.1253411 C19.3538452,14.3406616 18.9705545,14.2992388 18.7591894,14.0319443 C18.4115091,13.592706 17.9692506,13.3523754 17.4075249,13.297666 C15.649978,13.1249407 14.861188,15.03 14.8539127,15.0491483 C14.757037,15.2890881 14.5299727,15.434068 14.2906553,15.434068" id="Fill-55" fill="#524666"></path>
                    <path d="M31.5832313,19.0374633 C31.5943356,17.9987664 32.4286917,17.1656204 33.4464606,17.1765623 C34.4642296,17.1878949 35.280589,18.0394076 35.2698676,19.0781046 C35.2587633,20.1171924 34.4244072,20.9503383 33.4066382,20.9390057 C32.3884864,20.927673 31.5721269,20.0761603 31.5832313,19.0374633" id="Fill-57" fill="#524666"></path>
                    <path d="M36.4295805,15.6792052 C36.1860511,15.6792052 35.9563064,15.5291451 35.862494,15.2837344 C35.8303297,15.2008887 35.0928493,13.344677 33.3452581,13.4744165 C32.7831494,13.5166209 32.3359131,13.7467911 31.9782772,14.1786046 C31.7611685,14.4412097 31.3763462,14.4736445 31.1205638,14.2520715 C30.8636326,14.0308892 30.8310855,13.6389354 31.0481942,13.3767211 C31.6122174,12.6959799 32.3757355,12.3008999 33.2564235,12.2352486 C35.8996361,12.0363409 36.9537812,14.7190552 36.9970498,14.8335542 C37.1184316,15.1532134 36.9625881,15.5131231 36.6489866,15.6370008 C36.5766171,15.6655278 36.5027159,15.6792052 36.4295805,15.6792052" id="Fill-59" fill="#524666"></path>
                    <path d="M25.2229412,20.6852322 L25.2210266,20.6852322 C24.4919702,20.6774166 23.8594065,20.2878075 23.3011269,19.9439199 C22.6915377,19.5687697 22.3025034,19.3495414 22.017237,19.5640804 C21.9360606,19.6250423 21.8219541,19.6070663 21.7618375,19.5246114 C21.7021039,19.4421566 21.7193348,19.3253129 21.8005112,19.2639602 C22.2967597,18.8899824 22.8764821,19.2471566 23.4899005,19.6250423 C24.0079747,19.9439199 24.5953553,20.3053927 25.2248557,20.3124268 C25.3255605,20.3135991 25.4067369,20.3980079 25.4055882,20.5007834 C25.4044395,20.6031681 25.3228801,20.6852322 25.2229412,20.6852322" id="Fill-61" fill="#524666"></path>
                    <path d="M25.2440777,20.6852322 L25.2211032,20.6852322 C25.1200156,20.6840599 25.039222,20.5996511 25.0403707,20.4968756 C25.0415195,20.3944909 25.1230788,20.3124268 25.2230178,20.3124268 C25.2295272,20.3132083 25.2368024,20.3124268 25.2436948,20.3124268 C25.8663029,20.3124268 26.4544493,19.9677576 26.9744381,19.6633388 C27.5958974,19.2991306 28.183278,18.9552429 28.6707196,19.3401626 C28.7507474,19.4030784 28.7656808,19.5199221 28.7040326,19.6015954 C28.6423844,19.6824871 28.527895,19.6981184 28.4478673,19.6352026 C28.1671959,19.4140203 27.7739495,19.6250423 27.1563193,19.9869059 C26.596508,20.3143807 25.9635614,20.6852322 25.2440777,20.6852322" id="Fill-63" fill="#524666"></path>
                    <path d="M19.9961731,7.48389381 C19.9961731,7.48389381 14.3800643,4.01453647 16.8241648,1.27515881 C18.8941644,-1.04569197 24.1863332,3.09737251 24.7208725,6.5319503" id="Fill-65" fill="#BA8271"></path>
                    <path d="M19.9960199,7.67021838 C19.9638556,7.67021838 19.9313085,7.66162119 19.9014417,7.64325447 C19.7578512,7.55454709 16.3775412,5.4419828 16.0509208,3.14184344 C15.9467699,2.4110822 16.1615811,1.74089209 16.6892281,1.14963982 C17.3390226,0.421223279 18.3116085,0.227395701 19.5043663,0.591603972 C21.964166,1.34190427 24.5365406,4.15943822 24.9010689,6.50256354 C24.917151,6.6041667 24.8489934,6.69990815 24.7498203,6.71593019 C24.6494984,6.73468769 24.5564518,6.66278391 24.5407526,6.56157153 C24.2007305,4.37866659 21.7022571,1.65140315 19.3998324,0.948778179 C18.6684785,0.726032776 17.6522412,0.623648048 16.9591781,1.40052149 C16.502752,1.91244513 16.3239341,2.46461926 16.4123858,3.08830638 C16.7141171,5.21415724 20.0572851,7.30366542 20.090981,7.32437684 C20.1771353,7.37791389 20.2047047,7.49241284 20.1526292,7.58033866 C20.1181675,7.63817431 20.0576681,7.67021838 19.9960199,7.67021838" id="Fill-67" fill="#524666"></path>
                    <path d="M25.280722,25.0605381 C24.0244015,25.0605381 22.9235415,24.9237646 22.0145184,24.7420513 C19.2939584,24.1984743 17.6934038,23.1722823 17.626395,23.1289056 C17.5413894,23.0738054 17.5165004,22.9585249 17.5704904,22.8717714 C17.6240975,22.785018 17.7370553,22.7596172 17.8224437,22.8143266 C17.8856235,22.8553586 24.2254281,26.8557879 32.8580845,23.0187052 C32.7275129,22.935078 32.3514975,22.7686051 31.2831847,22.5724329 C31.1836287,22.5540662 31.1177685,22.4571524 31.1357652,22.35594 C31.1537619,22.2547276 31.2475743,22.1875132 31.3478961,22.2054891 C32.980615,22.5052185 33.2398436,22.7713406 33.2777515,22.9917413 C33.3022576,23.1316411 33.221464,23.2484847 33.1307149,23.3024125 C30.1677743,24.6396665 27.4851222,25.0605381 25.280722,25.0605381" id="Fill-69" fill="#524666"></path>
                    <path d="M81.2348479,32.2021074 L81.2348479,12.9377564 C81.2348479,12.7271252 81.4021787,12.5563537 81.608566,12.5563537 L85.5479215,12.5563537 C85.7543088,12.5563537 85.9216395,12.7271252 85.9216395,12.9377564 L85.9216395,15.2715029 C85.9216395,15.2715029 87.468587,11.7126566 92.0623319,12.2847606 L92.0665439,12.2851514 C92.2924595,12.3128969 92.4624706,12.5086784 92.4624706,12.7408025 L92.4624706,16.6314222 C92.4624706,16.8705804 92.2790577,17.0690974 92.0451011,17.082384 C90.7719326,17.1535062 90.0742746,17.4532355 88.9699685,17.9811812 C87.7504071,18.5646178 86.8743141,19.4395774 86.3409235,20.6064507 L86.3409235,32.1915563 C86.3409235,32.5932796 86.0223442,32.9195821 85.628715,32.9207544 L81.9512684,32.9309147 C81.5557247,32.9320871 81.2348479,32.6053938 81.2348479,32.2021074" id="Fill-71" fill="#FFFFFF"></path>
                    <path d="M136.340067,32.2021074 L136.340067,12.9912934 C136.340067,12.7509628 136.530755,12.5563537 136.766244,12.5563537 L140.600682,12.5563537 C140.835788,12.5563537 141.026859,12.7509628 141.026859,12.9912934 L141.026859,15.2715029 C141.026859,15.2715029 142.573806,11.7126566 147.167551,12.2847606 L147.171763,12.2851514 C147.397679,12.3128969 147.56769,12.5086784 147.56769,12.7408025 L147.56769,16.6314222 C147.56769,16.8705804 147.384277,17.0690974 147.15032,17.082384 C145.877152,17.1535062 145.179494,17.4532355 144.075188,17.9811812 C142.855627,18.5646178 141.979533,19.4395774 141.446143,20.6064507 L141.446143,32.1915563 C141.446143,32.5932796 141.127564,32.9195821 140.733934,32.9207544 L137.056488,32.9309147 C136.660944,32.9320871 136.340067,32.6053938 136.340067,32.2021074" id="Fill-73" fill="#FFFFFF"></path>
                    <path d="M124.153529,28.2677983 C121.066909,28.2677983 118.564989,25.7140418 118.564989,22.5643437 C118.564989,19.4142548 121.066909,16.8604983 124.153529,16.8604983 C127.240148,16.8604983 129.742068,19.4142548 129.742068,22.5643437 C129.742068,25.7140418 127.240148,28.2677983 124.153529,28.2677983 M124.153529,11.814338 C118.33601,11.814338 113.620118,16.6272018 113.620118,22.5643437 C113.620118,28.5010948 118.33601,33.3139587 124.153529,33.3139587 C129.971047,33.3139587 134.686939,28.5010948 134.686939,22.5643437 C134.686939,16.6272018 129.971047,11.814338 124.153529,11.814338" id="Fill-75" fill="#FFFFFF"></path>
                    <g id="Group-79" transform="translate(147.802412, 11.723442)">
                        <mask id="mask-20" fill="white">
                            <use xlink:href="#path-19"></use>
                        </mask>
                        <g id="Clip-78"></g>
                        <path d="M16.3488614,12.5327114 C16.109544,12.5327114 15.8993276,12.6862885 15.8124075,12.9137233 C14.9994943,15.0387926 12.9742949,16.5444734 10.6044785,16.5444734 C8.85535563,16.5444734 7.29500632,15.7234416 6.27034504,14.4393339 L16.1849768,10.6753274 L20.2840049,9.02818377 C20.6722734,8.87226199 20.8832556,8.44318401 20.7745098,8.03208197 C19.5645211,3.45759481 15.4700879,0.0914037711 10.6056272,0.0906222083 C4.91714886,0.0902314269 0.294685846,4.62095106 0.0787258446,10.4221011 C-0.149104299,16.5499443 4.65064503,21.5906337 10.6044785,21.5906337 C15.7235729,21.5906337 19.9899317,17.8637514 20.9403088,12.9234928 C20.9789825,12.7218496 20.827351,12.533493 20.6259415,12.533493 L16.3488614,12.5327114 Z M10.6044785,5.1371733 C12.4592839,5.1371733 14.0981293,6.06332524 15.1147495,7.48303409 L5.03853063,11.3080025 C5.02666049,11.1536438 5.01555617,10.9985036 5.01555617,10.8406279 C5.01555617,7.69053902 7.51785867,5.1371733 10.6044785,5.1371733 Z" id="Fill-77" fill="#FFFFFF" mask="url(#mask-20)"></path>
                    </g>
                    <path d="M112.341742,12.7059058 C110.66652,13.100595 108.887913,14.235815 107.800072,16.4069965 C107.614362,16.777848 107.447414,17.1772266 107.306121,17.6106032 L104.179679,26.9354291 L101.063193,17.6410841 C100.937982,17.256946 100.793243,16.8978179 100.632421,16.5629182 C99.4890585,14.1787609 97.522827,13.0079798 95.7331159,12.675034 C95.0794923,12.5538918 94.449226,12.5429499 93.8913293,12.6269679 L101.075828,32.3348558 C101.202188,32.6846052 101.528808,32.9171201 101.894102,32.9171201 L106.158164,32.9171201 C106.233214,32.9171201 106.305583,32.9050059 106.376421,32.8862484 L106.475211,32.8862484 C106.840123,32.8862484 107.167126,32.6537335 107.293102,32.3039841 L114.477985,12.596487 C113.836614,12.4995732 113.099899,12.5273186 112.341742,12.7059058" id="Fill-80" fill="#FFFFFF"></path>
                    <path d="M71.3147406,8.77460572 L71.0692967,8.11535748 C70.8380204,7.39866438 70.4313723,7.10987692 69.4817609,7.10987692 L67.1525328,7.10557833 C66.2431267,7.10557833 65.7246696,7.50456614 65.4455298,8.31074819 L64.4633712,10.9833022 C66.8098303,9.05088817 69.4427043,8.76053759 70.7993467,8.76053759 C70.9919493,8.76053759 71.1627262,8.76639931 71.3147406,8.77460572" id="Fill-82" fill="#FFFFFF"></path>
                    <path d="M65.2930942,22.81206 L68.2663733,14.577905 L71.0240753,22.81206 L65.2930942,22.81206 Z M71.7634702,10.3867744 C71.7634702,10.3867744 71.3958788,10.3238586 70.7993084,10.3238586 C69.0352521,10.3238586 65.2682052,10.8764235 63.0768238,15.2258206 C63.0128782,15.3528245 62.9504642,15.4829547 62.889199,15.616602 C62.8639271,15.6720929 62.8382722,15.7264116 62.8133832,15.7826841 C62.731058,15.9702592 62.6502645,16.1621328 62.5736829,16.3622129 L56.7067696,31.9774472 C56.5559039,32.379952 56.8469138,32.8121562 57.2692611,32.8121562 L61.7255422,32.8121562 C61.9782613,32.8121562 62.203794,32.6511543 62.291097,32.4092606 L64.4702253,26.3521488 L71.9177821,26.3521488 L74.1321379,32.4123869 C74.2198238,32.6527174 74.4449736,32.8121562 74.696544,32.8121562 L79.2286408,32.8121562 C79.6506052,32.8121562 79.941998,32.3807336 79.7915153,31.9782287 L71.7634702,10.3867744 Z" id="Fill-84" fill="#FFFFFF"></path>
                </g>
            </g>
        </g>
    </g>
</svg>