<?xml version="1.0" encoding="UTF-8"?>
<svg width="130px" height="59px" viewBox="0 0 130 59" version="1.1" xmlns="http://www.w3.org/2000/svg" xmlns:xlink="http://www.w3.org/1999/xlink">
    <!-- Generator: Sketch 62 (91390) - https://sketch.com -->
    <title>UI/brand/color/vertical</title>
    <desc>Created with Sketch.</desc>
    <g id="Page-1" stroke="none" stroke-width="1" fill="none" fill-rule="evenodd">
        <g id="Login---Educador" transform="translate(-95.000000, -140.000000)">
            <g id="UI/brand/color/vertical" transform="translate(95.000000, 140.000000)">
                <g>
                    <path d="M41.1968986,5.81708043 L41.2015414,5.81770838 C41.4618444,5.84973389 41.6574586,6.07359848 41.6574586,6.33922182 L41.6574586,10.7920235 C41.6574586,11.0658102 41.4463686,11.2931286 41.1767801,11.3081994 C39.710912,11.389833 38.9077178,11.7326944 37.6359162,12.3367834 C36.2319513,13.0046094 35.222929,14.0058776 34.6088491,15.3415297 L34.6088491,28.6013465 C34.6088491,29.0613207 34.241763,29.4343237 33.7886315,29.4355796 L29.5541421,29.4475138 C29.098844,29.4487666 28.7292818,29.0748216 28.7292818,28.6132775 L28.7292818,6.56434232 C28.7292818,6.32352304 28.9218008,6.12823023 29.1595091,6.12823023 L33.6957767,6.12823023 C33.9331755,6.12823023 34.126004,6.32352304 34.126004,6.56434232 L34.126004,9.23596054 C34.126004,9.23596054 35.907269,5.16244134 41.1968986,5.81708043 Z M105.119551,5.81708043 L105.124193,5.81770838 C105.384496,5.84973389 105.58011,6.07359848 105.58011,6.33922182 L105.58011,10.7920235 C105.58011,11.0658102 105.369021,11.2931286 105.099432,11.3081994 C103.633564,11.389833 102.83037,11.7326944 101.558568,12.3367834 C100.154603,13.0046094 99.1455809,14.0058776 98.531501,15.3415297 L98.531501,28.6013465 C98.531501,29.0613207 98.1644149,29.4343237 97.7112834,29.4355796 L93.476794,29.4475138 C93.0214959,29.4487666 92.6519337,29.0748216 92.6519337,28.6132775 L92.6519337,6.62588153 C92.6519337,6.3511529 92.8716901,6.12823023 93.1425167,6.12823023 L97.5577634,6.12823023 C97.8288995,6.12823023 98.0486559,6.3511529 98.0486559,6.62588153 L98.0486559,9.23596054 C98.0486559,9.23596054 99.8299209,5.16244134 105.119551,5.81708043 Z M78.2872928,5.02762431 C85.0305399,5.02762431 90.4972376,10.4943917 90.4972376,17.2377249 C90.4972376,23.981058 85.0305399,29.4475138 78.2872928,29.4475138 C71.5440457,29.4475138 66.0773481,23.981058 66.0773481,17.2377249 C66.0773481,10.4943917 71.5440457,5.02762431 78.2872928,5.02762431 Z M64.3361931,6.64960713 C65.2089088,6.44816244 66.057176,6.41690912 66.7955801,6.52614103 L66.7955801,6.52614103 L58.5236593,28.755918 C58.3785161,29.150762 58.0021962,29.4128567 57.5816215,29.4128567 L57.5816215,29.4128567 L57.4680447,29.4128567 C57.3869626,29.4338985 57.3030952,29.4475138 57.2167521,29.4475138 L57.2167521,29.4475138 L52.3078813,29.4475138 C51.8869971,29.4475138 51.5109866,29.1854191 51.3658435,28.7905752 L51.3658435,28.7905752 L43.0939227,6.56079818 C43.7363899,6.46580046 44.4621056,6.47786857 45.214436,6.61494998 C47.275221,6.99029929 49.5384017,8.31098427 50.855212,11.0003172 C51.0402772,11.3781421 51.2067741,11.7831975 51.3509888,12.2167213 L51.3509888,12.2167213 L54.9390261,22.7005093 L58.538514,12.1820642 C58.7012971,11.6934603 58.8934803,11.2429173 59.1073265,10.8242465 C60.3597663,8.37534755 62.4075534,7.09488962 64.3361931,6.64960713 Z M16.2130724,3.59116022 C16.8973248,3.59116022 17.3188538,3.66338996 17.3188538,3.66338996 L17.3188538,3.66338996 L26.5286624,28.4889716 C26.701036,28.9516835 26.366773,29.4475138 25.8829551,29.4475138 L25.8829551,29.4475138 L20.6836856,29.4475138 C20.39506,29.4475138 20.1369621,29.2642585 20.0361282,28.9876406 L20.0361282,28.9876406 L17.4961612,22.020152 L8.95241174,22.020152 L6.45222332,28.9844865 C6.35231446,29.2626814 6.09359984,29.4475138 5.8037408,29.4475138 L5.8037408,29.4475138 L0.691737385,29.4475138 C0.20730275,29.4475138 -0.126960231,28.9507372 0.0463384734,28.4880253 L0.0463384734,28.4880253 L6.77661876,10.5340466 C6.86450155,10.3037946 6.95700976,10.0833204 7.05167649,9.86757747 C7.08004567,9.80291766 7.1096483,9.74015033 7.1386342,9.67675218 C7.20863208,9.5231457 7.28048012,9.3733242 7.35386996,9.22697224 C9.86762625,4.22640342 14.1889929,3.59116022 16.2130724,3.59116022 Z M117.947751,5.19364865 C123.613479,5.19426687 128.382245,8.98707756 129.791398,14.141838 C129.918193,14.6048886 129.672116,15.0886497 129.220035,15.2642256 L129.220035,15.2642256 L124.445947,17.1204463 L112.89847,21.3614702 C114.091913,22.8081168 115.909004,23.7332906 117.946186,23.7332906 C120.70626,23.7332906 123.065284,22.0371902 124.012024,19.6424954 C124.11346,19.3862411 124.357972,19.2131381 124.636923,19.2131381 L124.636923,19.2131381 L129.618267,19.2140655 C129.853074,19.2140655 130.029648,19.4261167 129.984565,19.6533144 C128.87753,25.2201218 123.908396,29.4197246 117.946186,29.4197246 C111.011877,29.4197246 105.421287,23.7397819 105.686775,16.8348264 C105.938175,10.2980238 111.322134,5.19272131 117.947751,5.19364865 Z M78.2872928,10.759551 C74.7094023,10.759551 71.8092016,13.6597887 71.8092016,17.2377249 C71.8092016,20.8153494 74.7094023,23.7158987 78.2872928,23.7158987 C81.8651833,23.7158987 84.7653841,20.8153494 84.7653841,17.2377249 C84.7653841,13.6597887 81.8651833,10.759551 78.2872928,10.759551 Z M13.3070813,8.48228049 L9.8963038,17.9497382 L16.4708619,17.9497382 L13.3070813,8.48228049 Z M117.946186,10.8797736 C114.351453,10.8797736 111.437033,13.757302 111.437033,17.3065321 C111.437033,17.4842718 111.449556,17.6589203 111.463645,17.8332598 L111.463645,17.8332598 L123.199593,13.5229948 C122.015541,11.9233374 120.10672,10.8797736 117.946186,10.8797736 Z M12.4381593,0 L15.1239566,0.00426823429 C16.2187329,0.00426823429 16.6880112,0.325605302 16.9545762,1.121631 L16.9545762,1.121631 L17.2375691,1.8545478 C17.0624421,1.84540158 16.8653079,1.83899923 16.6433771,1.83899923 C15.0790125,1.83899923 12.0429612,2.16155579 9.33701657,4.30939227 L9.33701657,4.30939227 L10.4696078,1.3387012 C10.7913456,0.442981745 11.3892571,0 12.4381593,0 L12.4381593,0 Z" id="Combined-Shape" fill="#45D0C1"></path>
                    <path d="M28.0429291,47.1849674 C28.0429291,47.7696386 28.1111558,48.2842484 28.2705527,48.7752978 C28.407308,49.2666572 28.6122901,49.7108956 28.8854988,50.0618223 C29.1590094,50.412439 29.5007467,50.6929944 29.8877673,50.9037984 C30.2750897,51.1142924 30.7306389,51.2076042 31.2544147,51.2076042 C31.7326055,51.2076042 32.1881546,51.090732 32.5754771,50.880548 C32.9624976,50.6697439 33.3045368,50.3891886 33.5777456,50.0382619 C33.8509543,49.6876452 34.0559363,49.2430967 34.2153332,48.7520473 C34.3520885,48.260688 34.4203152,47.7228277 34.4203152,47.1381565 C34.4203152,45.9685042 34.1471065,45.0332163 33.6003872,44.3081125 C33.0310262,43.5830087 32.2566832,43.232082 31.2773582,43.232082 C30.7988656,43.232082 30.3433164,43.3257037 29.9562959,43.5129473 C29.54603,43.7234413 29.2045945,43.9807462 28.9313858,44.3313629 C28.6349317,44.6822896 28.4302515,45.1032777 28.2705527,45.5943271 C28.1111558,46.0856864 28.0429291,46.6002963 28.0429291,47.1849674 M34.4432587,51.3247864 L34.4432587,51.1375429 C34.1926916,51.6757131 33.7827276,52.1432021 33.2130647,52.5409397 C32.6437038,52.9383672 31.9149459,53.1491713 31.0494327,53.1491713 C30.2524481,53.1491713 29.5233884,52.9854881 28.8854988,52.6813723 C28.2479111,52.3772565 27.7014937,51.9562685 27.2685861,51.4184082 C26.813037,50.880548 26.4712997,50.2490659 26.2207325,49.5236521 C25.9701654,48.7988582 25.8563536,48.0269435 25.8563536,47.1849674 C25.8563536,46.3898022 25.9931089,45.6411379 26.243676,44.9160341 C26.4942431,44.2144907 26.8356786,43.5830087 27.2912277,43.0451484 C27.7467769,42.5072881 28.2934962,42.0859901 28.9313858,41.7586238 C29.5689735,41.454508 30.2750897,41.2908249 31.0494327,41.2908249 C31.5279253,41.2908249 31.960531,41.3376358 32.3475515,41.454508 C32.7119305,41.5716903 33.0310262,41.7118129 33.3045368,41.8758061 C33.5777456,42.0627396 33.8053692,42.2732337 33.9874077,42.4837277 C34.1697481,42.7177821 34.3065034,42.9515266 34.3976736,43.1855811 L34.3976736,35.9116022 L36.5160224,35.9116022 L36.5160224,50.7633657 C36.5160224,51.301536 36.538664,51.7690249 36.5613057,52.1432021 C36.5842492,52.5173792 36.6068908,52.7514337 36.6298343,52.8450555 L34.5570706,52.8450555 C34.5341271,52.7281832 34.5114854,52.5173792 34.4888438,52.2368239 C34.4659003,51.9795189 34.4432587,51.6757131 34.4432587,51.3247864" id="Fill-16" fill="#0075A8"></path>
                    <path d="M48.0044009,51.4580122 C47.6901043,52.0371889 47.206645,52.4772526 46.554023,52.7321395 C45.901401,53.0103654 45.248779,53.1491713 44.5718078,53.1491713 C43.895157,53.1491713 43.290913,53.0333974 42.7590757,52.8018495 C42.2032096,52.5699946 41.7437791,52.2457048 41.3811046,51.851705 C41.0187504,51.4580122 40.728803,50.9715775 40.5349707,50.4384648 C40.3177504,49.9056591 40.2209945,49.3031434 40.2209945,48.6775957 L40.2209945,41.6574586 L42.4931571,41.6574586 L42.4931571,48.3533059 C42.4931571,48.7469986 42.541535,49.0946275 42.638291,49.4422563 C42.7347265,49.7898852 42.8798604,50.114175 43.0974011,50.3690618 C43.3149418,50.6239487 43.5808604,50.8324646 43.9191858,50.9946095 C44.2334824,51.1567544 44.6445349,51.2264644 45.1276739,51.2264644 C46.0465349,51.2264644 46.7472145,50.9715775 47.206645,50.4384648 C47.6660755,49.9056591 47.8832958,49.2337404 47.8832958,48.3763379 L47.8832958,41.6574586 L50.1554584,41.6574586 L50.1554584,50.7397226 C50.1554584,51.1797863 50.1798075,51.5971252 50.2038363,51.9444469 C50.2281855,52.3151077 50.2522143,52.5930265 50.2762431,52.8018495 L48.1008364,52.8018495 C48.0768076,52.6860756 48.0527788,52.4772526 48.0284297,52.1993338 C48.0044009,51.9444469 48.0044009,51.6895601 48.0044009,51.4580122" id="Fill-18" fill="#0075A8"></path>
                    <path d="M58.0987741,43.7363131 C57.6536172,43.7363131 57.2087707,43.8078885 56.8104887,43.975109 C56.4125172,44.1426461 56.0378279,44.4055116 55.7332959,44.7399526 C55.4054816,45.0743935 55.1478245,45.4807266 54.9603246,45.982388 C54.7728248,46.4840494 54.6793853,47.0816726 54.6793853,47.7505545 C54.6793853,48.3956835 54.7728248,48.969237 54.9603246,49.4708984 C55.1478245,49.9725598 55.4054816,50.4029625 55.7097032,50.7374035 C56.0142352,51.095914 56.3889245,51.3587795 56.8104887,51.5256833 C57.2323634,51.6929038 57.6772099,51.7885488 58.1220564,51.7885488 C58.6609632,51.7885488 59.1058097,51.7169734 59.480499,51.5497529 C59.831906,51.3825324 60.1364381,51.1912424 60.3940951,50.9524465 C60.6281595,50.7133339 60.8153489,50.4504683 60.9559738,50.1638499 C61.0965987,49.9009844 61.1903486,49.6381189 61.2605059,49.4230759 L63.2044199,50.2832479 C63.063795,50.6895809 62.8533233,51.1196669 62.5956662,51.5256833 C62.3380092,51.9557693 61.9866022,52.3380328 61.5650379,52.69686 C61.1434737,53.0550539 60.6517522,53.3179194 60.0895631,53.5329624 C59.5037813,53.7480054 58.8481527,53.8674033 58.1220564,53.8674033 C57.3025206,53.8674033 56.5295494,53.7001828 55.8503281,53.3894948 C55.1478245,53.0791235 54.5387604,52.6490375 54.0467285,52.0992369 C53.555007,51.5497529 53.1567251,50.9046239 52.8757857,50.1638499 C52.5712537,49.4230759 52.4309392,48.6344794 52.4309392,47.7505545 C52.4309392,46.8663129 52.5712537,46.0302105 52.8757857,45.2894365 C53.1567251,44.5486625 53.555007,43.9035335 54.0700108,43.3540496 C54.5620427,42.8283186 55.1711067,42.4219855 55.8736103,42.1116142 C56.5531421,41.8009261 57.3025206,41.6574586 58.0987741,41.6574586 C58.8481527,41.6574586 59.5037813,41.7531036 60.0895631,41.9681466 C60.6517522,42.1831896 61.1434737,42.469808 61.5650379,42.8283186 C61.9633199,43.1868291 62.2911342,43.5690926 62.5487913,43.9991786 C62.8061379,44.4530175 62.9936378,44.8831034 63.11067,45.3131894 L61.119881,46.1733614 C61.0497238,45.886743 60.9326916,45.6001246 60.7920667,45.3131894 C60.6517522,45.026571 60.4642524,44.7637055 60.230188,44.5249096 C59.9725309,44.3098666 59.6912811,44.1185765 59.3401846,43.9513561 C58.9884671,43.8078885 58.5904956,43.7363131 58.0987741,43.7363131" id="Fill-20" fill="#0075A8"></path>
                    <path d="M67.5456915,47.6781628 C67.5456915,48.2801694 67.6139182,48.8339771 67.7733152,49.3399052 C67.9100705,49.8455142 68.1150525,50.3032435 68.3882612,50.6642559 C68.6617718,51.0255875 69.0035092,51.3147805 69.3905297,51.5315156 C69.7778522,51.7479316 70.2334013,51.8685882 70.7571772,51.8685882 C71.2353679,51.8685882 71.6909171,51.7479316 72.0782395,51.5315156 C72.46526,51.3147805 72.8069974,51.0255875 73.080508,50.6642559 C73.3537167,50.3032435 73.5586987,49.8455142 73.7183975,49.3399052 C73.854851,48.8339771 73.9230777,48.2801694 73.9230777,47.6781628 C73.9230777,46.4738304 73.6498689,45.5108114 73.1031496,44.7642083 C72.5337886,44.0176053 71.7594457,43.6562736 70.7801207,43.6562736 C69.8004938,43.6562736 69.0035092,44.0176053 68.4338463,44.7642083 C67.8418438,45.5108114 67.5456915,46.4738304 67.5456915,47.6781628 M73.9460212,51.9889257 L73.9460212,51.7961304 C73.695454,52.3502574 73.28549,52.8316073 72.7158272,53.2411377 C72.1464662,53.650349 71.4177083,53.8674033 70.5521951,53.8674033 C69.7552105,53.8674033 69.0261508,53.698867 68.3882612,53.3857342 C67.7506736,53.0726014 67.2042561,52.6151913 66.7713486,52.0610644 C66.3157994,51.5072566 65.9740621,50.8327922 65.723495,50.0865083 C65.4729278,49.3399052 65.359116,48.5451033 65.359116,47.6781628 C65.359116,46.8594211 65.4958713,46.088559 65.7464385,45.3422751 C65.9970056,44.6196118 66.338441,43.9936654 66.7942921,43.4395385 C67.2495393,42.8857307 67.7962587,42.4522605 68.4338463,42.1391277 C69.0717359,41.8259949 69.7778522,41.6574586 70.5521951,41.6574586 C71.0306878,41.6574586 71.4632934,41.7056574 71.850314,41.8259949 C72.2146929,41.9466515 72.5337886,42.0909288 72.8069974,42.2597843 C73.080508,42.4522605 73.3081316,42.6689956 73.4901701,42.8857307 C73.6725105,43.1267249 73.8092659,43.3673998 73.9001342,43.608394 L73.9001342,41.9705914 L76.0187849,41.9705914 L76.0187849,51.410859 C76.0187849,51.9167871 76.0414265,52.3741972 76.0640681,52.7837276 C76.0867097,53.1932581 76.1096532,53.433933 76.1325967,53.5542705 L74.059833,53.5542705 C74.0368895,53.433933 74.0142479,53.2171979 73.9916063,52.9283241 C73.9686628,52.6633901 73.9460212,52.3502574 73.9460212,51.9889257" id="Fill-22" fill="#0075A8"></path>
                    <path d="M83.9707131,53.8290382 C83.2446378,53.7336358 82.5657464,53.5181086 81.9799815,53.1596362 C81.3712454,52.8246183 80.8559461,52.3945148 80.410802,51.8442866 C79.9659683,51.3181468 79.6145714,50.6962875 79.3802033,50.0031141 C79.1228641,49.3096238 79.0055249,48.5441854 79.0055249,47.7552926 C79.0055249,46.8703634 79.1461457,46.0573822 79.450669,45.3160322 C79.7316002,44.5746821 80.1295603,43.9290515 80.6448596,43.3791403 C81.1368773,42.829229 81.7459239,42.42258 82.4484072,42.1116504 C83.1276089,41.8010377 83.8769659,41.6574586 84.6735069,41.6574586 C85.4228638,41.6574586 86.0784735,41.753178 86.6639281,41.9680712 C87.226101,42.1835984 87.7178083,42.4704397 88.1393604,42.829229 C88.5376309,43.1877014 88.8657461,43.5702621 89.1230854,44.0006826 C89.380735,44.4551913 89.5679191,44.8856118 89.6852583,45.3160322 L87.6945267,46.176873 C87.6240611,45.8900317 87.5070322,45.6028735 87.3667218,45.3160322 C87.226101,45.0291909 87.038917,44.766121 86.8045489,44.5268224 C86.5468992,44.3116122 86.265968,44.1204903 85.9145711,43.9531398 C85.5634847,43.8095607 85.1652142,43.7379296 84.6735069,43.7379296 C84.2283628,43.7379296 83.7832187,43.8333321 83.3852586,44.0006826 C82.9869881,44.16835 82.6123096,44.43142 82.3080968,44.766121 C81.9799815,45.100822 81.7223318,45.507471 81.5351478,46.0095225 C81.3476534,46.511574 81.2539061,47.1096619 81.2539061,47.7552926 C81.2539061,48.4009232 81.3476534,48.9746058 81.5351478,49.4769743 C81.7223318,49.9790258 81.9799815,50.4094462 82.2845048,50.7444642 C82.589028,51.1029366 82.9637065,51.3660065 83.3852586,51.533357 C83.8068107,51.7007075 84.2516444,51.7964269 84.6967885,51.7964269 C85.2120878,51.7964269 85.6569215,51.7247958 86.0315999,51.5574453 C86.3829968,51.3897779 86.6875201,51.198656 86.9448593,50.9593574 C87.1792274,50.7203758 87.3667218,50.4573059 87.5306243,50.1704646 C87.6712451,49.9073947 87.7646819,49.6443248 87.8351475,49.4291146 L89.7790055,50.2899554 C89.6619767,50.6487447 89.4744823,51.0313055 89.2637062,51.4138662 C89.0293382,51.7964269 88.7484069,52.1552162 88.420602,52.4658289 C88.0692052,52.7770755 87.6712451,53.0639168 87.226101,53.3028984 C86.7576753,53.5421969 86.2190944,53.7095474 85.6333294,53.8052669 C84.8591388,53.9295119 83.9707131,53.8290382 83.9707131,53.8290382" id="Fill-24" fill="#0075A8"></path>
                    <path d="M94.1202772,47.6781628 C94.1202772,48.2801694 94.1885039,48.8339771 94.3479008,49.3399052 C94.4846561,49.8455142 94.6896381,50.3032435 94.9628469,50.6642559 C95.2363575,51.0255875 95.5780948,51.3147805 95.9651154,51.5315156 C96.3524378,51.7479316 96.8079869,51.8685882 97.3317628,51.8685882 C97.8099535,51.8685882 98.2655027,51.7479316 98.6528251,51.5315156 C99.0398457,51.3147805 99.3818849,51.0255875 99.6550936,50.6642559 C99.9283024,50.3032435 100.133284,49.8455142 100.292681,49.3399052 C100.429437,48.8339771 100.497663,48.2801694 100.497663,47.6781628 C100.497663,46.4738304 100.224455,45.5108114 99.6777352,44.7642083 C99.1083743,44.0176053 98.3340313,43.6562736 97.3547063,43.6562736 C96.3750794,43.6562736 95.5780948,44.0176053 95.0087339,44.7642083 C94.4164294,45.5108114 94.1202772,46.4738304 94.1202772,47.6781628 M100.520607,51.9889257 L100.520607,51.7961304 C100.27004,52.3502574 99.8600756,52.8316073 99.2904128,53.2411377 C98.7210518,53.650349 97.992294,53.8674033 97.1267808,53.8674033 C96.3297962,53.8674033 95.6007364,53.698867 94.9628469,53.3857342 C94.3252592,53.0726014 93.7788417,52.6151913 93.3459342,52.0610644 C92.890385,51.5072566 92.5486477,50.8327922 92.2980806,50.0865083 C92.0475135,49.3399052 91.9337017,48.5451033 91.9337017,47.6781628 C91.9337017,46.8594211 92.070457,46.088559 92.3210241,45.3422751 C92.5715912,44.6196118 92.9130267,43.9936654 93.3685758,43.4395385 C93.8241249,42.8857307 94.3708443,42.4522605 95.0087339,42.1391277 C95.6463215,41.8259949 96.3524378,41.6574586 97.1267808,41.6574586 C97.6052734,41.6574586 98.0378791,41.7056574 98.4248996,41.8259949 C98.7892785,41.9466515 99.1083743,42.0909288 99.3818849,42.2597843 C99.6550936,42.4522605 99.8827172,42.6689956 100.064756,42.8857307 C100.247096,43.1267249 100.383851,43.3673998 100.475022,43.608394 L100.475022,41.9705914 L102.593371,41.9705914 L102.593371,51.410859 C102.593371,51.9167871 102.616012,52.3741972 102.638654,52.7837276 C102.661597,53.1932581 102.684239,53.433933 102.707182,53.5542705 L100.634419,53.5542705 C100.611475,53.433933 100.588834,53.2171979 100.566192,52.9283241 C100.543248,52.6633901 100.520607,52.3502574 100.520607,51.9889257" id="Fill-26" fill="#0075A8"></path>
                    <path d="M111.325812,51.860441 C111.792985,51.860441 112.236939,51.7647959 112.657363,51.5975754 C113.077788,51.430355 113.451465,51.1674895 113.778393,50.8089789 C114.105631,50.450785 114.362282,50.0206991 114.549275,49.5187209 C114.735958,49.0170595 114.829455,48.4197531 114.829455,47.7505545 C114.829455,47.0816726 114.735958,46.4840494 114.549275,45.982388 C114.362282,45.4807266 114.105631,45.0743935 113.778393,44.715883 C113.451465,44.3576891 113.077788,44.0948236 112.657363,43.9276031 C112.236939,43.760066 111.792985,43.6647376 111.325812,43.6647376 C110.858639,43.6647376 110.414995,43.760066 109.99457,43.9276031 C109.573836,44.0948236 109.200159,44.3576891 108.873541,44.715883 C108.546303,45.0743935 108.289342,45.4807266 108.102659,45.982388 C107.915666,46.4840494 107.822479,47.0816726 107.822479,47.7505545 C107.822479,48.4197531 107.915666,49.0170595 108.102659,49.5187209 C108.289342,50.0206991 108.546303,50.450785 108.873541,50.8089789 C109.200159,51.1674895 109.573836,51.430355 109.99457,51.5975754 C110.414995,51.7647959 110.858639,51.860441 111.325812,51.860441 M111.325812,41.6574586 C112.166662,41.6574586 112.937543,41.8009261 113.638148,42.1116142 C114.339062,42.4219855 114.946171,42.8520715 115.460092,43.4018721 C115.974013,43.9513561 116.370909,44.5724154 116.651398,45.3131894 C116.931578,46.0539635 117.071823,46.8663129 117.071823,47.7505545 C117.071823,48.6347961 116.931578,49.4471455 116.651398,50.1879195 C116.370909,50.9283769 115.974013,51.5735058 115.460092,52.1233065 C114.946171,52.6727904 114.339062,53.0791235 113.638148,53.3898115 C112.937543,53.7001828 112.166662,53.8674033 111.325812,53.8674033 C110.484963,53.8674033 109.714081,53.7001828 109.013476,53.3898115 C108.312871,53.0791235 107.705454,52.6727904 107.191532,52.1233065 C106.677611,51.5735058 106.280715,50.9283769 106.000535,50.1879195 C105.720046,49.4471455 105.58011,48.6347961 105.58011,47.7505545 C105.58011,46.8663129 105.720046,46.0539635 106.000535,45.3131894 C106.280715,44.5724154 106.677611,43.9513561 107.191532,43.4018721 C107.705454,42.8520715 108.312871,42.4219855 109.013476,42.1116142 C109.714081,41.8009261 110.484963,41.6574586 111.325812,41.6574586" id="Fill-28" fill="#0075A8"></path>
                    <path d="M15.2651272,45.8614273 L21.4113612,45.8614273 C21.3880342,45.0251085 21.1075032,44.3322029 20.5933983,43.7588599 C20.0792935,43.2090577 19.3316148,42.9225411 18.3267321,42.9225411 C17.8589785,42.9225411 17.438485,42.9940928 17.0879727,43.1613565 C16.7141334,43.3286203 16.4102753,43.5674358 16.1533743,43.8304116 C15.8961704,44.1169282 15.6856207,44.4276052 15.5223311,44.7859833 C15.3584356,45.1446711 15.2884543,45.5030492 15.2651272,45.8614273 M21.7385464,48.8483244 L23.6316762,49.5173794 C23.4677806,50.0191707 23.2575339,50.4968017 22.9539787,50.9270412 C22.6501207,51.3808216 22.2762813,51.76336 21.8554848,52.0737272 C21.4113612,52.4085645 20.9205835,52.6712306 20.3831515,52.8623449 C19.8454167,53.0534592 19.2380034,53.1491713 18.5836331,53.1491713 C17.8359544,53.1491713 17.1112998,53.0057581 16.4336024,52.743092 C15.7559049,52.4801162 15.1481888,52.0737272 14.6340839,51.5483951 C14.096652,51.0227533 13.6991826,50.3775488 13.3956275,49.6127817 C13.0917694,48.8483244 12.9281768,47.9878453 12.9281768,47.008423 C12.9281768,46.1002428 13.0684423,45.263924 13.3719974,44.5233172 C13.6761585,43.7827104 14.0733249,43.1613565 14.5641027,42.6118641 C15.0545775,42.0862223 15.6156395,41.6798333 16.2700098,41.3691563 C16.9243801,41.0826397 17.6020776,40.9392265 18.3031021,40.9392265 C19.1677192,40.9392265 19.939028,41.0826397 20.6167254,41.3691563 C21.2944228,41.6798333 21.8554848,42.0862223 22.2993055,42.6118641 C22.743429,43.137506 23.0939413,43.7588599 23.3511452,44.4994666 C23.5847191,45.2400734 23.7016575,46.0763922 23.7016575,46.9604121 L23.7016575,47.3668011 C23.6783304,47.486054 23.6783304,47.6056166 23.6547003,47.6771683 L15.194843,47.6771683 C15.218473,48.1792694 15.3117814,48.6569003 15.4756769,49.0871399 C15.6389665,49.5173794 15.8961704,49.8757575 16.2000285,50.1861247 C16.5035837,50.4968017 16.8540959,50.7356172 17.2748924,50.9031907 C17.6720589,51.0704544 18.1161824,51.1661665 18.5836331,51.1661665 C19.4949044,51.1661665 20.1962319,50.9508918 20.6870096,50.4968017 C21.1777874,50.0427115 21.5282997,49.4932191 21.7385464,48.8483244" id="Fill-30" fill="#0075A8"></path>
                    <path d="M98.3226458,36.6298343 L94.8066298,36.6298343 L94.8066298,38.7845304 L100.552486,38.7845304 L100.552486,38.7845304 C100.552486,37.5946412 99.554338,36.6298343 98.3226458,36.6298343" id="Fill-32" fill="#45D0C1"></path>
                    <path d="M86.9060773,56.0220994 L81.160221,56.0220994 L81.160221,56.0220994 C81.160221,57.2122844 82.1586753,58.1767956 83.3900614,58.1767956 L86.9060773,58.1767956 L86.9060773,56.0220994 Z" id="Fill-34" fill="#96DD48"></path>
                </g>
            </g>
        </g>
    </g>
</svg>